<svg version="1.1" xmlns="http://www.w3.org/2000/svg" xmlns:xlink="http://www.w3.org/1999/xlink" width="1803.0400390625" height="890"><defs/><g><g transform="translate(-182,-222) scale(1,1)"><rect fill="#C0C0C0" stroke="none" x="207" y="271" width="210.5888671875" height="162" opacity="0.2"/></g><g transform="translate(-182,-222) scale(1,1)"><rect fill="#ffffff" stroke="none" x="200" y="264" width="210.5888671875" height="162"/></g><g transform="translate(-182,-222) scale(1,1)"><path fill="none" stroke="#000000" d="M 200 264 L 410.5888671875 264 L 410.5888671875 426 L 200 426 L 200 264 Z Z" stroke-miterlimit="10"/></g><g transform="translate(-182,-222) scale(1,1)"><path fill="none" stroke="#000000" d="M 200 289 L 410.5888671875 289" stroke-miterlimit="10"/></g><g transform="translate(-182,-222) scale(1,1)"><path fill="none" stroke="#000000" d="M 200 417 L 410.5888671875 417" stroke-miterlimit="10"/></g><g transform="translate(-182,-222) scale(1,1)"><g><path fill="none" stroke="none"/><text fill="#000000" stroke="none" font-family="Arial" font-size="13px" font-style="normal" font-weight="bold" text-decoration="none" x="282.896728515625" y="283.5">Usuario</text></g></g><g transform="translate(-182,-222) scale(1,1)"><g><path fill="none" stroke="none"/><text fill="#000000" stroke="none" font-family="Arial" font-size="13px" font-style="normal" font-weight="normal" text-decoration="none" x="205" y="306.5">-codUsuario</text></g></g><g transform="translate(-182,-222) scale(1,1)"><g><path fill="none" stroke="none"/><text fill="#000000" stroke="none" font-family="Arial" font-size="13px" font-style="normal" font-weight="normal" text-decoration="none" x="205" y="321.5">-password</text></g></g><g transform="translate(-182,-222) scale(1,1)"><g><path fill="none" stroke="none"/><text fill="#000000" stroke="none" font-family="Arial" font-size="13px" font-style="normal" font-weight="normal" text-decoration="none" x="205" y="336.5">-descUsuario</text></g></g><g transform="translate(-182,-222) scale(1,1)"><g><path fill="none" stroke="none"/><text fill="#000000" stroke="none" font-family="Arial" font-size="13px" font-style="normal" font-weight="normal" text-decoration="none" x="205" y="351.5">-numAccesos</text></g></g><g transform="translate(-182,-222) scale(1,1)"><g><path fill="none" stroke="none"/><text fill="#000000" stroke="none" font-family="Arial" font-size="13px" font-style="normal" font-weight="normal" text-decoration="none" x="205" y="366.5">-fechaHoraUltimaConexion</text></g></g><g transform="translate(-182,-222) scale(1,1)"><g><path fill="none" stroke="none"/><text fill="#000000" stroke="none" font-family="Arial" font-size="13px" font-style="normal" font-weight="normal" text-decoration="none" x="205" y="381.5">-fechaHoraUltimaConexionAnterior</text></g></g><g transform="translate(-182,-222) scale(1,1)"><g><path fill="none" stroke="none"/><text fill="#000000" stroke="none" font-family="Arial" font-size="13px" font-style="normal" font-weight="normal" text-decoration="none" x="205" y="396.5">-perfil</text></g></g><g transform="translate(-182,-222) scale(1,1)"><g><path fill="none" stroke="none"/><text fill="#000000" stroke="none" font-family="Arial" font-size="13px" font-style="normal" font-weight="normal" text-decoration="none" x="205" y="411.5">-listaOpinionesUsuario</text></g></g><g transform="translate(-182,-222) scale(1,1)"><rect fill="#C0C0C0" stroke="none" x="527" y="239" width="379.29052734375" height="222" opacity="0.2"/></g><g transform="translate(-182,-222) scale(1,1)"><rect fill="#ffffff" stroke="none" x="520" y="232" width="379.29052734375" height="222"/></g><g transform="translate(-182,-222) scale(1,1)"><path fill="none" stroke="#000000" d="M 520 232 L 899.29052734375 232 L 899.29052734375 454 L 520 454 L 520 232 Z Z" stroke-miterlimit="10"/></g><g transform="translate(-182,-222) scale(1,1)"><path fill="none" stroke="#000000" d="M 520 257 L 899.29052734375 257" stroke-miterlimit="10"/></g><g transform="translate(-182,-222) scale(1,1)"><path fill="none" stroke="#000000" d="M 520 267 L 899.29052734375 267" stroke-miterlimit="10"/></g><g transform="translate(-182,-222) scale(1,1)"><g><path fill="none" stroke="none"/><text fill="#000000" stroke="none" font-family="Arial" font-size="13px" font-style="normal" font-weight="bold" text-decoration="none" x="673.162109375" y="251.5">UsuarioPDO</text></g></g><g transform="translate(-182,-222) scale(1,1)"><g><path fill="none" stroke="none"/><text fill="#000000" stroke="none" font-family="Arial" font-size="13px" font-style="normal" font-weight="normal" text-decoration="none" x="525" y="284.5">+static validarusuario(codUsuario, password)</text></g></g><g transform="translate(-182,-222) scale(1,1)"><g><path fill="none" stroke="none"/><text fill="#000000" stroke="none" font-family="Arial" font-size="13px" font-style="normal" font-weight="normal" text-decoration="none" x="525" y="299.5">+static altaUsuario(codUsuario, password, descUsuario)</text></g></g><g transform="translate(-182,-222) scale(1,1)"><g><path fill="none" stroke="none"/><text fill="#000000" stroke="none" font-family="Arial" font-size="13px" font-style="normal" font-weight="normal" text-decoration="none" x="525" y="314.5">+static registrarUltimaConexion(codUsuario)</text></g></g><g transform="translate(-182,-222) scale(1,1)"><g><path fill="none" stroke="none"/><text fill="#000000" stroke="none" font-family="Arial" font-size="13px" font-style="normal" font-weight="normal" text-decoration="none" x="525" y="329.5">+static modificarUsuario(codusuario, descUsuario, imagenPerfil)</text></g></g><g transform="translate(-182,-222) scale(1,1)"><g><path fill="none" stroke="none"/><text fill="#000000" stroke="none" font-family="Arial" font-size="13px" font-style="normal" font-weight="normal" text-decoration="none" x="525" y="344.5">+static cambiarPassword(codUsuario, passwordNueva)</text></g></g><g transform="translate(-182,-222) scale(1,1)"><g><path fill="none" stroke="none"/><text fill="#000000" stroke="none" font-family="Arial" font-size="13px" font-style="normal" font-weight="normal" text-decoration="none" x="525" y="359.5">+static borrarUsuario(codUsuario)</text></g></g><g transform="translate(-182,-222) scale(1,1)"><g><path fill="none" stroke="none"/><text fill="#000000" stroke="none" font-family="Arial" font-size="13px" font-style="normal" font-weight="normal" text-decoration="none" x="525" y="374.5">+static validarCodNoExiste(codUsuario)</text></g></g><g transform="translate(-182,-222) scale(1,1)"><g><path fill="none" stroke="none"/><text fill="#000000" stroke="none" font-family="Arial" font-size="13px" font-style="normal" font-weight="normal" text-decoration="none" x="525" y="389.5">-static obtenerDatosUsuario(codUsuario)</text></g></g><g transform="translate(-182,-222) scale(1,1)"><g><path fill="none" stroke="none"/><text fill="#000000" stroke="none" font-family="Arial" font-size="13px" font-style="normal" font-weight="normal" text-decoration="none" x="525" y="404.5">+static buscarUsuariosPorDesc()</text></g></g><g transform="translate(-182,-222) scale(1,1)"><g><path fill="none" stroke="none"/><text fill="#000000" stroke="none" font-family="Arial" font-size="13px" font-style="normal" font-weight="normal" text-decoration="none" x="525" y="419.5">+static crearOpinion()</text></g></g><g transform="translate(-182,-222) scale(1,1)"><g><path fill="none" stroke="none"/><text fill="#000000" stroke="none" font-family="Arial" font-size="13px" font-style="normal" font-weight="normal" text-decoration="none" x="525" y="434.5">+static modificarOpinion()</text></g></g><g transform="translate(-182,-222) scale(1,1)"><g><path fill="none" stroke="none"/><text fill="#000000" stroke="none" font-family="Arial" font-size="13px" font-style="normal" font-weight="normal" text-decoration="none" x="525" y="449.5">+static borrarOpinion()</text></g></g><g transform="translate(-182,-222) scale(1,1)"><path fill="#C0C0C0" stroke="none" d="M 1169.978515625 322.5 C 1169.978515625 316.1487248 1175.127240425 311 1181.478515625 311 C 1187.829790825 311 1192.978515625 316.1487248 1192.978515625 322.5 C 1192.978515625 328.8512752 1187.829790825 334 1181.478515625 334 C 1175.127240425 334 1169.978515625 328.8512752 1169.978515625 322.5 Z" opacity="0.2"/></g><g transform="translate(-182,-222) scale(1,1)"><path fill="#ffffff" stroke="none" d="M 1162.978515625 315.5 C 1162.978515625 309.1487248 1168.127240425 304 1174.478515625 304 C 1180.829790825 304 1185.978515625 309.1487248 1185.978515625 315.5 C 1185.978515625 321.8512752 1180.829790825 327 1174.478515625 327 C 1168.127240425 327 1162.978515625 321.8512752 1162.978515625 315.5 Z"/></g><g transform="translate(-182,-222) scale(1,1)"><path fill="none" stroke="#000000" d="M 1162.978515625 315.5 C 1162.978515625 309.1487248 1168.127240425 304 1174.478515625 304 C 1180.829790825 304 1185.978515625 309.1487248 1185.978515625 315.5 C 1185.978515625 321.8512752 1180.829790825 327 1174.478515625 327 C 1168.127240425 327 1162.978515625 321.8512752 1162.978515625 315.5 Z" stroke-miterlimit="10"/></g><g transform="translate(-182,-222) scale(1,1)"><path fill="none" stroke="#000000" d="M 1056 352 L 1292.95703125 352" stroke-miterlimit="10"/></g><g transform="translate(-182,-222) scale(1,1)"><g><path fill="none" stroke="none"/><text fill="#000000" stroke="none" font-family="Arial" font-size="13px" font-style="normal" font-weight="bold" text-decoration="none" x="1143.05126953125" y="346.5">UsuarioDB</text></g></g><g transform="translate(-182,-222) scale(1,1)"><g><path fill="none" stroke="none"/><text fill="#000000" stroke="none" font-family="Arial" font-size="13px" font-style="normal" font-weight="normal" text-decoration="none" x="1061" y="369.5">+validarUsuario(codUsuario, password)</text></g></g><g transform="translate(-182,-222) scale(1,1)"><rect fill="#C0C0C0" stroke="none" x="839" y="575" width="311.39599609375" height="57" opacity="0.2"/></g><g transform="translate(-182,-222) scale(1,1)"><rect fill="#ffffff" stroke="none" x="832" y="568" width="311.39599609375" height="57"/></g><g transform="translate(-182,-222) scale(1,1)"><path fill="none" stroke="#000000" d="M 832 568 L 1143.39599609375 568 L 1143.39599609375 625 L 832 625 L 832 568 Z Z" stroke-miterlimit="10"/></g><g transform="translate(-182,-222) scale(1,1)"><path fill="none" stroke="#000000" d="M 832 593 L 1143.39599609375 593" stroke-miterlimit="10"/></g><g transform="translate(-182,-222) scale(1,1)"><path fill="none" stroke="#000000" d="M 832 603 L 1143.39599609375 603" stroke-miterlimit="10"/></g><g transform="translate(-182,-222) scale(1,1)"><g><path fill="none" stroke="none"/><text fill="#000000" stroke="none" font-family="Arial" font-size="13px" font-style="normal" font-weight="bold" text-decoration="none" x="964.5830078125" y="587.5">DBPDO</text></g></g><g transform="translate(-182,-222) scale(1,1)"><g><path fill="none" stroke="none"/><text fill="#000000" stroke="none" font-family="Arial" font-size="13px" font-style="normal" font-weight="normal" text-decoration="none" x="837" y="620.5">+static ejecutarConsulta(sentenciaSQL, parametros)</text></g></g><g transform="translate(-182,-222) scale(1,1)"><rect fill="#C0C0C0" stroke="none" x="1487" y="767" width="188.58154296875" height="117" opacity="0.2"/></g><g transform="translate(-182,-222) scale(1,1)"><rect fill="#ffffff" stroke="none" x="1480" y="760" width="188.58154296875" height="117"/></g><g transform="translate(-182,-222) scale(1,1)"><path fill="none" stroke="#000000" d="M 1480 760 L 1668.58154296875 760 L 1668.58154296875 877 L 1480 877 L 1480 760 Z Z" stroke-miterlimit="10"/></g><g transform="translate(-182,-222) scale(1,1)"><path fill="none" stroke="#000000" d="M 1480 785 L 1668.58154296875 785" stroke-miterlimit="10"/></g><g transform="translate(-182,-222) scale(1,1)"><path fill="none" stroke="#000000" d="M 1480 868 L 1668.58154296875 868" stroke-miterlimit="10"/></g><g transform="translate(-182,-222) scale(1,1)"><g><path fill="none" stroke="none"/><text fill="#000000" stroke="none" font-family="Arial" font-size="13px" font-style="normal" font-weight="bold" text-decoration="none" x="1533.100830078125" y="779.5">Departamento</text></g></g><g transform="translate(-182,-222) scale(1,1)"><g><path fill="none" stroke="none"/><text fill="#000000" stroke="none" font-family="Arial" font-size="13px" font-style="normal" font-weight="normal" text-decoration="none" x="1485" y="802.5">-codDepartamento</text></g></g><g transform="translate(-182,-222) scale(1,1)"><g><path fill="none" stroke="none"/><text fill="#000000" stroke="none" font-family="Arial" font-size="13px" font-style="normal" font-weight="normal" text-decoration="none" x="1485" y="817.5">-descDepartamento</text></g></g><g transform="translate(-182,-222) scale(1,1)"><g><path fill="none" stroke="none"/><text fill="#000000" stroke="none" font-family="Arial" font-size="13px" font-style="normal" font-weight="normal" text-decoration="none" x="1485" y="832.5">-volumenDeNegocio</text></g></g><g transform="translate(-182,-222) scale(1,1)"><g><path fill="none" stroke="none"/><text fill="#000000" stroke="none" font-family="Arial" font-size="13px" font-style="normal" font-weight="normal" text-decoration="none" x="1485" y="847.5">-fechaCreacionDepartamento</text></g></g><g transform="translate(-182,-222) scale(1,1)"><g><path fill="none" stroke="none"/><text fill="#000000" stroke="none" font-family="Arial" font-size="13px" font-style="normal" font-weight="normal" text-decoration="none" x="1485" y="862.5">-fechaBajaDepartamento = null</text></g></g><g transform="translate(-182,-222) scale(1,1)"><rect fill="#C0C0C0" stroke="none" x="1279" y="519" width="703.0400390625" height="177" opacity="0.2"/></g><g transform="translate(-182,-222) scale(1,1)"><rect fill="#ffffff" stroke="none" x="1272" y="512" width="703.0400390625" height="177"/></g><g transform="translate(-182,-222) scale(1,1)"><path fill="none" stroke="#000000" d="M 1272 512 L 1975.0400390625 512 L 1975.0400390625 689 L 1272 689 L 1272 512 Z Z" stroke-miterlimit="10"/></g><g transform="translate(-182,-222) scale(1,1)"><path fill="none" stroke="#000000" d="M 1272 537 L 1975.0400390625 537" stroke-miterlimit="10"/></g><g transform="translate(-182,-222) scale(1,1)"><path fill="none" stroke="#000000" d="M 1272 547 L 1975.0400390625 547" stroke-miterlimit="10"/></g><g transform="translate(-182,-222) scale(1,1)"><g><path fill="none" stroke="none"/><text fill="#000000" stroke="none" font-family="Arial" font-size="13px" font-style="normal" font-weight="bold" text-decoration="none" x="1568.24462890625" y="531.5">DepartamentoPDO</text></g></g><g transform="translate(-182,-222) scale(1,1)"><g><path fill="none" stroke="none"/><text fill="#000000" stroke="none" font-family="Arial" font-size="13px" font-style="normal" font-weight="normal" text-decoration="none" x="1277" y="564.5">+static obtenerDatosDepartamento(codDepartamento)</text></g></g><g transform="translate(-182,-222) scale(1,1)"><g><path fill="none" stroke="none"/><text fill="#000000" stroke="none" font-family="Arial" font-size="13px" font-style="normal" font-weight="normal" text-decoration="none" x="1277" y="579.5">+static buscarDepartamentosPorCodigo(codDepartamento)</text></g></g><g transform="translate(-182,-222) scale(1,1)"><g><path fill="none" stroke="none"/><text fill="#000000" stroke="none" font-family="Arial" font-size="13px" font-style="normal" font-weight="normal" text-decoration="none" x="1277" y="594.5">+static buscarDepartamentosPorDescripcion(descDepartamento, criterioBusqueda, numPaginaActual, numMaxPaginas)</text></g></g><g transform="translate(-182,-222) scale(1,1)"><g><path fill="none" stroke="none"/><text fill="#000000" stroke="none" font-family="Arial" font-size="13px" font-style="normal" font-weight="normal" text-decoration="none" x="1277" y="609.5">+static altaDepartamento(codDepartamento, descDepartamento, volumenDeNegocio)</text></g></g><g transform="translate(-182,-222) scale(1,1)"><g><path fill="none" stroke="none"/><text fill="#000000" stroke="none" font-family="Arial" font-size="13px" font-style="normal" font-weight="normal" text-decoration="none" x="1277" y="624.5">+static bajaFisicaDepartamento(codDepartamento)</text></g></g><g transform="translate(-182,-222) scale(1,1)"><g><path fill="none" stroke="none"/><text fill="#000000" stroke="none" font-family="Arial" font-size="13px" font-style="normal" font-weight="normal" text-decoration="none" x="1277" y="639.5">+static bajaLogicaDepartamento(codDepartamento, fechaBaja)</text></g></g><g transform="translate(-182,-222) scale(1,1)"><g><path fill="none" stroke="none"/><text fill="#000000" stroke="none" font-family="Arial" font-size="13px" font-style="normal" font-weight="normal" text-decoration="none" x="1277" y="654.5">+static modificarDepartamento(codDepartamento, descDepartamento, volumenDeNegocio)</text></g></g><g transform="translate(-182,-222) scale(1,1)"><g><path fill="none" stroke="none"/><text fill="#000000" stroke="none" font-family="Arial" font-size="13px" font-style="normal" font-weight="normal" text-decoration="none" x="1277" y="669.5">+static rehabilitarDepartamento(codDepartamento)</text></g></g><g transform="translate(-182,-222) scale(1,1)"><g><path fill="none" stroke="none"/><text fill="#000000" stroke="none" font-family="Arial" font-size="13px" font-style="normal" font-weight="normal" text-decoration="none" x="1277" y="684.5">+static validarCodNoExiste(codDepartamento)</text></g></g><g transform="translate(-182,-222) scale(1,1)"><rect fill="#C0C0C0" stroke="none" x="271" y="575" width="114.498046875" height="132" opacity="0.2"/></g><g transform="translate(-182,-222) scale(1,1)"><rect fill="#ffffff" stroke="none" x="264" y="568" width="114.498046875" height="132"/></g><g transform="translate(-182,-222) scale(1,1)"><path fill="none" stroke="#000000" d="M 264 568 L 378.498046875 568 L 378.498046875 700 L 264 700 L 264 568 Z Z" stroke-miterlimit="10"/></g><g transform="translate(-182,-222) scale(1,1)"><path fill="none" stroke="#000000" d="M 264 593 L 378.498046875 593" stroke-miterlimit="10"/></g><g transform="translate(-182,-222) scale(1,1)"><path fill="none" stroke="#000000" d="M 264 691 L 378.498046875 691" stroke-miterlimit="10"/></g><g transform="translate(-182,-222) scale(1,1)"><g><path fill="none" stroke="none"/><text fill="#000000" stroke="none" font-family="Arial" font-size="13px" font-style="normal" font-weight="bold" text-decoration="none" x="295.594970703125" y="587.5">Cuestion</text></g></g><g transform="translate(-182,-222) scale(1,1)"><g><path fill="none" stroke="none"/><text fill="#000000" stroke="none" font-family="Arial" font-size="13px" font-style="normal" font-weight="normal" text-decoration="none" x="269" y="610.5">-codCuestion</text></g></g><g transform="translate(-182,-222) scale(1,1)"><g><path fill="none" stroke="none"/><text fill="#000000" stroke="none" font-family="Arial" font-size="13px" font-style="normal" font-weight="normal" text-decoration="none" x="269" y="625.5">-descCuestion</text></g></g><g transform="translate(-182,-222) scale(1,1)"><g><path fill="none" stroke="none"/><text fill="#000000" stroke="none" font-family="Arial" font-size="13px" font-style="normal" font-weight="normal" text-decoration="none" x="269" y="640.5">-numOrden</text></g></g><g transform="translate(-182,-222) scale(1,1)"><g><path fill="none" stroke="none"/><text fill="#000000" stroke="none" font-family="Arial" font-size="13px" font-style="normal" font-weight="normal" text-decoration="none" x="269" y="655.5">-tiempoRespuesta</text></g></g><g transform="translate(-182,-222) scale(1,1)"><g><path fill="none" stroke="none"/><text fill="#000000" stroke="none" font-family="Arial" font-size="13px" font-style="normal" font-weight="normal" text-decoration="none" x="269" y="670.5">-promedioOpinion</text></g></g><g transform="translate(-182,-222) scale(1,1)"><g><path fill="none" stroke="none"/><text fill="#000000" stroke="none" font-family="Arial" font-size="13px" font-style="normal" font-weight="normal" text-decoration="none" x="269" y="685.5">-numOpiniones</text></g></g><g transform="translate(-182,-222) scale(1,1)"><rect fill="#C0C0C0" stroke="none" x="215" y="767" width="210.95703125" height="147" opacity="0.2"/></g><g transform="translate(-182,-222) scale(1,1)"><rect fill="#ffffff" stroke="none" x="208" y="760" width="210.95703125" height="147"/></g><g transform="translate(-182,-222) scale(1,1)"><path fill="none" stroke="#000000" d="M 208 760 L 418.95703125 760 L 418.95703125 907 L 208 907 L 208 760 Z Z" stroke-miterlimit="10"/></g><g transform="translate(-182,-222) scale(1,1)"><path fill="none" stroke="#000000" d="M 208 785 L 418.95703125 785" stroke-miterlimit="10"/></g><g transform="translate(-182,-222) scale(1,1)"><path fill="none" stroke="#000000" d="M 208 795 L 418.95703125 795" stroke-miterlimit="10"/></g><g transform="translate(-182,-222) scale(1,1)"><g><path fill="none" stroke="none"/><text fill="#000000" stroke="none" font-family="Arial" font-size="13px" font-style="normal" font-weight="bold" text-decoration="none" x="273.739013671875" y="779.5">CuestionPDO</text></g></g><g transform="translate(-182,-222) scale(1,1)"><g><path fill="none" stroke="none"/><text fill="#000000" stroke="none" font-family="Arial" font-size="13px" font-style="normal" font-weight="normal" text-decoration="none" x="213" y="812.5">+static buscarCuestiones()</text></g></g><g transform="translate(-182,-222) scale(1,1)"><g><path fill="none" stroke="none"/><text fill="#000000" stroke="none" font-family="Arial" font-size="13px" font-style="normal" font-weight="normal" text-decoration="none" x="213" y="827.5">+static buscarCuestionPorCodigo()</text></g></g><g transform="translate(-182,-222) scale(1,1)"><g><path fill="none" stroke="none"/><text fill="#000000" stroke="none" font-family="Arial" font-size="13px" font-style="normal" font-weight="normal" text-decoration="none" x="213" y="842.5">+static altaCuestion()</text></g></g><g transform="translate(-182,-222) scale(1,1)"><g><path fill="none" stroke="none"/><text fill="#000000" stroke="none" font-family="Arial" font-size="13px" font-style="normal" font-weight="normal" text-decoration="none" x="213" y="857.5">+static bajaFisicaCuestion()</text></g></g><g transform="translate(-182,-222) scale(1,1)"><g><path fill="none" stroke="none"/><text fill="#000000" stroke="none" font-family="Arial" font-size="13px" font-style="normal" font-weight="normal" text-decoration="none" x="213" y="872.5">+static modificaCuestion()</text></g></g><g transform="translate(-182,-222) scale(1,1)"><g><path fill="none" stroke="none"/><text fill="#000000" stroke="none" font-family="Arial" font-size="13px" font-style="normal" font-weight="normal" text-decoration="none" x="213" y="887.5">+static subeCuestion()</text></g></g><g transform="translate(-182,-222) scale(1,1)"><g><path fill="none" stroke="none"/><text fill="#000000" stroke="none" font-family="Arial" font-size="13px" font-style="normal" font-weight="normal" text-decoration="none" x="213" y="902.5">+static bajaCuestion()</text></g></g><g transform="translate(-182,-222) scale(1,1)"><rect fill="#C0C0C0" stroke="none" x="663" y="791" width="118.54296875" height="87" opacity="0.2"/></g><g transform="translate(-182,-222) scale(1,1)"><rect fill="#ffffff" stroke="none" x="656" y="784" width="118.54296875" height="87"/></g><g transform="translate(-182,-222) scale(1,1)"><path fill="none" stroke="#000000" d="M 656 784 L 774.54296875 784 L 774.54296875 871 L 656 871 L 656 784 Z Z" stroke-miterlimit="10"/></g><g transform="translate(-182,-222) scale(1,1)"><path fill="none" stroke="#000000" d="M 656 809 L 774.54296875 809" stroke-miterlimit="10"/></g><g transform="translate(-182,-222) scale(1,1)"><path fill="none" stroke="#000000" d="M 656 862 L 774.54296875 862" stroke-miterlimit="10"/></g><g transform="translate(-182,-222) scale(1,1)"><g><path fill="none" stroke="none"/><text fill="#000000" stroke="none" font-family="Arial" font-size="13px" font-style="normal" font-weight="bold" text-decoration="none" x="692.867431640625" y="803.5">Opinion</text></g></g><g transform="translate(-182,-222) scale(1,1)"><g><path fill="none" stroke="none"/><text fill="#000000" stroke="none" font-family="Arial" font-size="13px" font-style="normal" font-weight="normal" text-decoration="none" x="661" y="826.5">-codUsuario</text></g></g><g transform="translate(-182,-222) scale(1,1)"><g><path fill="none" stroke="none"/><text fill="#000000" stroke="none" font-family="Arial" font-size="13px" font-style="normal" font-weight="normal" text-decoration="none" x="661" y="841.5">-codCuestion</text></g></g><g transform="translate(-182,-222) scale(1,1)"><g><path fill="none" stroke="none"/><text fill="#000000" stroke="none" font-family="Arial" font-size="13px" font-style="normal" font-weight="normal" text-decoration="none" x="661" y="856.5">-valorOpinionTipo1</text></g></g><g transform="translate(-182,-222) scale(1,1)"><rect fill="#C0C0C0" stroke="none" x="895" y="775" width="208.06884765625" height="117" opacity="0.2"/></g><g transform="translate(-182,-222) scale(1,1)"><rect fill="#ffffff" stroke="none" x="888" y="768" width="208.06884765625" height="117"/></g><g transform="translate(-182,-222) scale(1,1)"><path fill="none" stroke="#000000" d="M 888 768 L 1096.06884765625 768 L 1096.06884765625 885 L 888 885 L 888 768 Z Z" stroke-miterlimit="10"/></g><g transform="translate(-182,-222) scale(1,1)"><path fill="none" stroke="#000000" d="M 888 793 L 1096.06884765625 793" stroke-miterlimit="10"/></g><g transform="translate(-182,-222) scale(1,1)"><path fill="none" stroke="#000000" d="M 888 803 L 1096.06884765625 803" stroke-miterlimit="10"/></g><g transform="translate(-182,-222) scale(1,1)"><g><path fill="none" stroke="none"/><text fill="#000000" stroke="none" font-family="Arial" font-size="13px" font-style="normal" font-weight="bold" text-decoration="none" x="955.544921875" y="787.5">OpinionPDO</text></g></g><g transform="translate(-182,-222) scale(1,1)"><g><path fill="none" stroke="none"/><text fill="#000000" stroke="none" font-family="Arial" font-size="13px" font-style="normal" font-weight="normal" text-decoration="none" x="893" y="820.5">+static buscarOpinionesUsuario()</text></g></g><g transform="translate(-182,-222) scale(1,1)"><g><path fill="none" stroke="none"/><text fill="#000000" stroke="none" font-family="Arial" font-size="13px" font-style="normal" font-weight="normal" text-decoration="none" x="893" y="835.5">+static buscarOpinionesCuestion()</text></g></g><g transform="translate(-182,-222) scale(1,1)"><g><path fill="none" stroke="none"/><text fill="#000000" stroke="none" font-family="Arial" font-size="13px" font-style="normal" font-weight="normal" text-decoration="none" x="893" y="850.5">+static altaOpinionUsuario()</text></g></g><g transform="translate(-182,-222) scale(1,1)"><g><path fill="none" stroke="none"/><text fill="#000000" stroke="none" font-family="Arial" font-size="13px" font-style="normal" font-weight="normal" text-decoration="none" x="893" y="865.5">+static bajaFisicaOpinionUsuario()</text></g></g><g transform="translate(-182,-222) scale(1,1)"><g><path fill="none" stroke="none"/><text fill="#000000" stroke="none" font-family="Arial" font-size="13px" font-style="normal" font-weight="normal" text-decoration="none" x="893" y="880.5">+static modificaOpinionUsuario()</text></g></g><g transform="translate(-182,-222) scale(1,1)"><path fill="none" stroke="#000000" d="M 519 344 L 412 344" stroke-miterlimit="10" stroke-dasharray="3"/></g><g transform="translate(-182,-222) scale(1,1)"><path fill="none" stroke="#000000" d="M 422.16267485762415 339.790482243984 L 412 344 L 422.16267485762415 348.209517756016" stroke-miterlimit="10"/></g><g transform="translate(-182,-222) scale(1,1)"><path fill="none" stroke="#000000" d="M 1603 690 L 1587 759" stroke-miterlimit="10" stroke-dasharray="3"/></g><g transform="translate(-182,-222) scale(1,1)"><path fill="none" stroke="#000000" d="M 1585.1949384188715 748.1491128156111 L 1587 759 L 1593.3963646254963 750.0508928055532" stroke-miterlimit="10"/></g><g transform="translate(-182,-222) scale(1,1)"><path fill="none" stroke="#000000" d="M 1055 340 L 900 341" stroke-miterlimit="10" stroke-dasharray="3"/></g><g transform="translate(-182,-222) scale(1,1)"><path fill="none" stroke="#000000" d="M 910.1353057482662 336.7250055685227 L 900 341 L 910.1896209760304 345.1438658719657" stroke-miterlimit="10"/></g><g transform="translate(-182,-222) scale(1,1)"><path fill="none" stroke="#000000" d="M 832 455 L 955 567" stroke-miterlimit="10" stroke-dasharray="3"/></g><g transform="translate(-182,-222) scale(1,1)"><path fill="none" stroke="#000000" d="M 944.6516145286557 563.270265674814 L 955 567 L 950.3199068922434 557.0452660255169" stroke-miterlimit="10"/></g><g transform="translate(-182,-222) scale(1,1)"><path fill="none" stroke="#000000" d="M 316 759 L 318 701" stroke-miterlimit="10" stroke-dasharray="3"/></g><g transform="translate(-182,-222) scale(1,1)"><path fill="none" stroke="#000000" d="M 321.8567883955344 711.3017077842497 L 318 701 L 313.44275379603874 711.0115686601292" stroke-miterlimit="10"/></g><g transform="translate(-182,-222) scale(1,1)"><path fill="none" stroke="#000000" d="M 420 831 L 655 828" stroke-miterlimit="10" stroke-dasharray="3"/></g><g transform="translate(-182,-222) scale(1,1)"><path fill="none" stroke="#000000" d="M 644.8918872912595 832.3389004906081 L 655 828 L 644.7844189988491 823.9205509184543" stroke-miterlimit="10"/></g><g transform="translate(-182,-222) scale(1,1)"><path fill="none" stroke="#000000" d="M 887 826 L 776 827" stroke-miterlimit="10" stroke-dasharray="3"/></g><g transform="translate(-182,-222) scale(1,1)"><path fill="none" stroke="#000000" d="M 786.1243404254823 822.6991011463944 L 776 827 L 786.2001845144815 831.1177950253176" stroke-miterlimit="10"/></g><g transform="translate(-182,-222) scale(1,1)"><path fill="none" stroke="#000000" d="M 710 455 L 714 783" stroke-miterlimit="10" stroke-dasharray="3"/></g><g transform="translate(-182,-222) scale(1,1)"><path fill="none" stroke="#000000" d="M 709.6668693865233 772.8894125251521 L 714 783 L 718.0852789246883 772.7867489941989" stroke-miterlimit="10"/></g><g transform="translate(-182,-222) scale(1,1)"><path fill="none" stroke="#000000" d="M 1271 598 L 1144 597" stroke-miterlimit="10" stroke-dasharray="3"/></g><g transform="translate(-182,-222) scale(1,1)"><path fill="none" stroke="#000000" d="M 1154.1955046103503 592.8706313145562 L 1144 597 L 1154.1292150470942 601.2894058481008" stroke-miterlimit="10"/></g><g transform="translate(-182,-222) scale(1,1)"><path fill="none" stroke="#000000" d="M 991 767 L 988 626" stroke-miterlimit="10" stroke-dasharray="3"/></g><g transform="translate(-182,-222) scale(1,1)"><path fill="none" stroke="#000000" d="M 992.4247434676047 636.0708314078773 L 988 626 L 984.0076129302576 636.2499192916507" stroke-miterlimit="10"/></g><g transform="translate(-182,-222) scale(1,1)"><rect fill="#C0C0C0" stroke="none" x="199" y="999" width="385.822265625" height="102" opacity="0.2"/></g><g transform="translate(-182,-222) scale(1,1)"><rect fill="#ffffff" stroke="none" x="192" y="992" width="385.822265625" height="102"/></g><g transform="translate(-182,-222) scale(1,1)"><path fill="none" stroke="#000000" d="M 192 992 L 577.822265625 992 L 577.822265625 1094 L 192 1094 L 192 992 Z Z" stroke-miterlimit="10"/></g><g transform="translate(-182,-222) scale(1,1)"><path fill="none" stroke="#000000" d="M 192 1017 L 577.822265625 1017" stroke-miterlimit="10"/></g><g transform="translate(-182,-222) scale(1,1)"><path fill="none" stroke="#000000" d="M 192 1027 L 577.822265625 1027" stroke-miterlimit="10"/></g><g transform="translate(-182,-222) scale(1,1)"><g><path fill="none" stroke="none"/><text fill="#000000" stroke="none" font-family="Arial" font-size="13px" font-style="normal" font-weight="bold" text-decoration="none" x="351.43359375" y="1011.5">RESTAjeno</text></g></g><g transform="translate(-182,-222) scale(1,1)"><g><path fill="none" stroke="none"/><text fill="#000000" stroke="none" font-family="Arial" font-size="13px" font-style="normal" font-weight="normal" text-decoration="none" x="197" y="1044.5">+static obtenerVolumenDeNegocio(codDepartamento)</text></g></g><g transform="translate(-182,-222) scale(1,1)"><g><path fill="none" stroke="none"/><text fill="#000000" stroke="none" font-family="Arial" font-size="13px" font-style="normal" font-weight="normal" text-decoration="none" x="197" y="1059.5">+static obtenerDatosDepartamentoPOST(codDepartamento, key)</text></g></g><g transform="translate(-182,-222) scale(1,1)"><g><path fill="none" stroke="none"/><text fill="#000000" stroke="none" font-family="Arial" font-size="13px" font-style="normal" font-weight="normal" text-decoration="none" x="197" y="1074.5">+static obtenerCentrosDeDia(nombreDistrito)</text></g></g><g transform="translate(-182,-222) scale(1,1)"><g><path fill="none" stroke="none"/><text fill="#000000" stroke="none" font-family="Arial" font-size="13px" font-style="normal" font-weight="normal" text-decoration="none" x="197" y="1089.5">+static obtenerFestivosEsp()</text></g></g><g transform="translate(-182,-222) scale(1,1)"><rect fill="#C0C0C0" stroke="none" x="687" y="1007" width="308.48876953125" height="102" opacity="0.2"/></g><g transform="translate(-182,-222) scale(1,1)"><rect fill="#ffffff" stroke="none" x="680" y="1000" width="308.48876953125" height="102"/></g><g transform="translate(-182,-222) scale(1,1)"><path fill="none" stroke="#000000" d="M 680 1000 L 988.48876953125 1000 L 988.48876953125 1102 L 680 1102 L 680 1000 Z Z" stroke-miterlimit="10"/></g><g transform="translate(-182,-222) scale(1,1)"><path fill="none" stroke="#000000" d="M 680 1025 L 988.48876953125 1025" stroke-miterlimit="10"/></g><g transform="translate(-182,-222) scale(1,1)"><path fill="none" stroke="#000000" d="M 680 1035 L 988.48876953125 1035" stroke-miterlimit="10"/></g><g transform="translate(-182,-222) scale(1,1)"><g><path fill="none" stroke="none"/><text fill="#000000" stroke="none" font-family="Arial" font-size="13px" font-style="normal" font-weight="bold" text-decoration="none" x="798.119873046875" y="1019.5">RESTPropio</text></g></g><g transform="translate(-182,-222) scale(1,1)"><g><path fill="none" stroke="none"/><text fill="#000000" stroke="none" font-family="Arial" font-size="13px" font-style="normal" font-weight="normal" text-decoration="none" x="685" y="1052.5">+static obtenerDatos(codDepartamento)</text></g></g><g transform="translate(-182,-222) scale(1,1)"><g><path fill="none" stroke="none"/><text fill="#000000" stroke="none" font-family="Arial" font-size="13px" font-style="normal" font-weight="normal" text-decoration="none" x="685" y="1067.5">+static obtenerUsuarioPorDescripcion(descUsuario)</text></g></g><g transform="translate(-182,-222) scale(1,1)"><g><path fill="none" stroke="none"/><text fill="#000000" stroke="none" font-family="Arial" font-size="13px" font-style="normal" font-weight="normal" text-decoration="none" x="685" y="1082.5">+static eliminarUsuario(codUsuario)</text></g></g><g transform="translate(-182,-222) scale(1,1)"><g><path fill="none" stroke="none"/><text fill="#000000" stroke="none" font-family="Arial" font-size="13px" font-style="normal" font-weight="normal" text-decoration="none" x="685" y="1097.5">+static restablecerPassword(codUsuario)</text></g></g></g></svg>