<?xml version="1.0" encoding="UTF-8" standalone="no"?>
<!-- Generator: Adobe Illustrator 18.1.1, SVG Export Plug-In . SVG Version: 6.00 Build 0)  -->

<svg
   xmlns:dc="http://purl.org/dc/elements/1.1/"
   xmlns:cc="http://creativecommons.org/ns#"
   xmlns:rdf="http://www.w3.org/1999/02/22-rdf-syntax-ns#"
   xmlns:svg="http://www.w3.org/2000/svg"
   xmlns="http://www.w3.org/2000/svg"
   xmlns:sodipodi="http://sodipodi.sourceforge.net/DTD/sodipodi-0.dtd"
   xmlns:inkscape="http://www.inkscape.org/namespaces/inkscape"
   version="1.1"
   id="Capa_1"
   x="0px"
   y="0px"
   viewBox="0 0 1700 2242"
   xml:space="preserve"
   sodipodi:docname="img-eliminar.svg"
   width="1700"
   height="2242"
   inkscape:version="0.92.4 (5da689c313, 2019-01-14)"><metadata
   id="metadata5093"><rdf:RDF><cc:Work
       rdf:about=""><dc:format>image/svg+xml</dc:format><dc:type
         rdf:resource="http://purl.org/dc/dcmitype/StillImage" /><dc:title></dc:title></cc:Work></rdf:RDF></metadata><defs
   id="defs5091" /><sodipodi:namedview
   pagecolor="#ffffff"
   bordercolor="#666666"
   borderopacity="1"
   objecttolerance="10"
   gridtolerance="10"
   guidetolerance="10"
   inkscape:pageopacity="0"
   inkscape:pageshadow="2"
   inkscape:window-width="1920"
   inkscape:window-height="1017"
   id="namedview5089"
   showgrid="false"
   fit-margin-top="0"
   fit-margin-left="0"
   fit-margin-right="0"
   fit-margin-bottom="0"
   inkscape:zoom="0.10745612"
   inkscape:cx="-1527.9431"
   inkscape:cy="383.58753"
   inkscape:window-x="1912"
   inkscape:window-y="-8"
   inkscape:window-maximized="1"
   inkscape:current-layer="Capa_1" />
<g
   id="g5056"
   transform="matrix(5.7731623,0,0,5.7747041,-270.70358,0)"
   style="fill:#333333">
	<path
   style="fill:#333333"
   d="m 107.415,388.245 h 173.334 c 21.207,0 38.342,-17.159 38.342,-38.342 V 80.928 H 69.097 v 268.975 c 0,21.183 17.167,38.342 38.318,38.342 z M 253.998,129.643 c 0,-7.178 5.796,-13.03 13.006,-13.03 7.178,0 13.006,5.853 13.006,13.03 v 208.311 c 0,7.21 -5.828,13.038 -13.006,13.038 -7.21,0 -13.006,-5.828 -13.006,-13.038 V 129.643 Z m -72.507,0 c 0,-7.178 5.804,-13.03 13.006,-13.03 7.178,0 13.006,5.853 13.006,13.03 v 208.311 c 0,7.21 -5.828,13.038 -13.006,13.038 -7.202,0 -13.006,-5.828 -13.006,-13.038 0,0 0,-208.311 0,-208.311 z m -72.466,0 c 0,-7.178 5.796,-13.03 12.973,-13.03 7.177,0 13.038,5.853 13.038,13.03 v 208.311 c 0,7.21 -5.861,13.038 -13.038,13.038 -7.178,0 -12.973,-5.828 -12.973,-13.038 z"
   id="path5052"
   inkscape:connector-curvature="0" />
	<path
   style="fill:#333333"
   d="M 294.437,20.451 H 241.658 C 240.39,8.966 230.75,0 218.955,0 h -49.682 c -11.86,0 -21.476,8.966 -22.736,20.451 H 93.792 c -25.865,0 -46.756,20.955 -46.902,46.756 h 294.466 c -0.098,-25.8 -21.021,-46.756 -46.919,-46.756 z"
   id="path5054"
   inkscape:connector-curvature="0" />
</g>
<g
   id="g5058"
   transform="translate(2224.2084,1312.9027)">
</g>
<g
   id="g5060"
   transform="translate(2224.2084,1312.9027)">
</g>
<g
   id="g5062"
   transform="translate(2224.2084,1312.9027)">
</g>
<g
   id="g5064"
   transform="translate(2224.2084,1312.9027)">
</g>
<g
   id="g5066"
   transform="translate(2224.2084,1312.9027)">
</g>
<g
   id="g5068"
   transform="translate(2224.2084,1312.9027)">
</g>
<g
   id="g5070"
   transform="translate(2224.2084,1312.9027)">
</g>
<g
   id="g5072"
   transform="translate(2224.2084,1312.9027)">
</g>
<g
   id="g5074"
   transform="translate(2224.2084,1312.9027)">
</g>
<g
   id="g5076"
   transform="translate(2224.2084,1312.9027)">
</g>
<g
   id="g5078"
   transform="translate(2224.2084,1312.9027)">
</g>
<g
   id="g5080"
   transform="translate(2224.2084,1312.9027)">
</g>
<g
   id="g5082"
   transform="translate(2224.2084,1312.9027)">
</g>
<g
   id="g5084"
   transform="translate(2224.2084,1312.9027)">
</g>
<g
   id="g5086"
   transform="translate(2224.2084,1312.9027)">
</g>
</svg>