<?xml version="1.0" encoding="UTF-8" standalone="no"?>
<svg
   xmlns:dc="http://purl.org/dc/elements/1.1/"
   xmlns:cc="http://creativecommons.org/ns#"
   xmlns:rdf="http://www.w3.org/1999/02/22-rdf-syntax-ns#"
   xmlns:svg="http://www.w3.org/2000/svg"
   xmlns="http://www.w3.org/2000/svg"
   xmlns:sodipodi="http://sodipodi.sourceforge.net/DTD/sodipodi-0.dtd"
   xmlns:inkscape="http://www.inkscape.org/namespaces/inkscape"
   width="2480"
   height="2941"
   viewBox="0 0 2480 2941"
   version="1.1"
   id="svg4757"
   sodipodi:docname="1and1.svg"
   inkscape:version="0.92.4 (5da689c313, 2019-01-14)">
  <metadata
     id="metadata4763">
    <rdf:RDF>
      <cc:Work
         rdf:about="">
        <dc:format>image/svg+xml</dc:format>
        <dc:type
           rdf:resource="http://purl.org/dc/dcmitype/StillImage" />
        <dc:title />
      </cc:Work>
    </rdf:RDF>
  </metadata>
  <defs
     id="defs4761">
    <style
       id="style5087">
      .cls-1, .cls-2 {
        fill: #003d8f;
      }

      .cls-1 {
        fill-rule: evenodd;
      }
    </style>
    <clipPath
       clipPathUnits="userSpaceOnUse"
       id="clipPath9671">
      <path
         style="fill:#000000"
         d="m -2183.9011,1688.1795 v -409.4999 h 648 648.00001 v 409.4999 409.5 h -648.00001 -648 z m 681.7784,382.9663 14.7216,-1.5337 14.9709,-3.0077 14.971,-3.0078 12.529,-3.5266 12.5291,-3.5266 13.1711,-4.9319 13.171,-4.9319 12.329,-5.5726 12.3289,-5.5725 12,-6.5862 12,-6.5861 7.7391,-4.8413 7.739,-4.8414 0.761,0.024 0.7609,0.024 14.5,19.9708 14.5,19.9709 79.8413,0.01 79.8413,0.01 -4.9013,-6.25 -4.9012,-6.25 -45.69,-58.2451 -45.6901,-58.2445 v -0.5357 -0.5356 l 5.3954,-6.3601 5.3955,-6.3601 5.1311,-7.604 5.1311,-7.604 5.3952,-10.7558 5.3951,-10.7558 2.9621,-7.5 2.962,-7.5 2.6076,-8.2742 2.6076,-8.2743 3.0882,-12.2257 3.0881,-12.2258 2.8437,-17 2.8437,-17 1.7901,-18 1.7902,-18 -8e-4,-38 -8e-4,-38 -0.7738,-4.75 -0.7738,-4.75 h -62.5787 -62.5786 l 0.6497,5.75 0.6497,5.75 0.6285,24.5 0.6285,24.5 -1.1781,15.5 -1.1781,15.5 -1.533,10.5 -1.533,10.5 -1.9475,8.5 -1.9475,8.5 -3.0773,9.5 -3.0772,9.5 -0.7717,0.8193 -0.7717,0.8192 -35.97,-48.8192 -35.97,-48.8193 -22.5459,-30.6293 -22.5459,-30.6293 8.3724,-6.201 8.3724,-6.2009 12.2668,-10.7689 12.2668,-10.7688 8.0937,-8.9009 8.0938,-8.9009 6.8336,-8.5 6.8336,-8.5 6.925,-10.5 6.925,-10.5 7.3137,-14.7582 7.3136,-14.7583 3.5776,-10.7417 3.5775,-10.7418 2.5047,-11 2.5047,-11 1.1922,-14.167 1.1923,-14.167 -1.1859,-12.5833 -1.1859,-12.5832 -1.5767,-7.7497 -1.5767,-7.7498 -3.4667,-10.5 -3.4668,-10.5 -4.9342,-10.1501 -4.9342,-10.1502 -6.9423,-10.3498 -6.9424,-10.3499 -8.9944,-10.1058 -8.9944,-10.1058 -4.3443,-3.5498 -4.3442,-3.5498 -10.5,-6.6878 -10.5,-6.6879 -14,-6.8681 -14,-6.8682 -12,-3.9905 -12,-3.9905 -9,-1.9689 -9,-1.9689 -9.8599,-1.2163 -9.8599,-1.2163 -18.6401,0.5724 -18.6401,0.5723 -12.2327,2.569 -12.2327,2.5689 -11.7673,3.8753 -11.7673,3.8754 -10.4757,4.6225 -10.4757,4.6225 -10.9499,6.1319 -10.9498,6.132 -6.6007,4.2699 -6.6007,4.27 -10.7435,11.1202 -10.7435,11.1201 -6.7973,9.2261 -6.7972,9.2261 -3.7146,6.1829 -3.7147,6.1829 -4.402,9.3171 -4.402,9.3171 -2.4958,7.5 -2.4959,7.5 -1.8205,8.5 -1.8205,8.5 0.07,21 0.07,21 2.128,9.6082 2.128,9.6081 3.5646,11.0264 3.5646,11.0264 4.4747,10.2314 4.4747,10.2314 6.5967,11.8973 6.5967,11.8973 7.2232,10.8112 7.2232,10.8111 7.1229,9.4256 7.123,9.4256 7.5411,9 7.5411,9 0.028,0.5522 0.029,0.5521 -9.25,5.9162 -9.25,5.9161 -11.9075,8.342 -11.9076,8.342 -12.0805,9.6897 -12.0805,9.6897 -13.8957,13.5 -13.8957,13.5 -7.9665,9.5 -7.9664,9.5 -8.3158,12.5 -8.3159,12.5 -4.9951,10 -4.9952,10 -3.0117,7.582 -3.0116,7.5819 -2.5496,9.4181 -2.5496,9.418 -1.7234,9.5 -1.7234,9.5 0.018,19 0.018,19 2.2739,13 2.2738,13 3.4297,11.9205 3.4297,11.9205 4.966,12.6095 4.9661,12.6094 6.3074,12.4701 6.3074,12.47 4.2855,7.3201 4.2855,7.32 7.5033,9.9607 7.5033,9.9607 10.1617,10.264 10.1617,10.264 9.5,7.5956 9.5,7.5956 9.5,6.1466 9.5,6.1465 12.6754,6.4615 12.6754,6.4616 10.3119,4.0186 10.312,4.0187 10.3149,2.9569 10.315,2.957 11.6977,2.4457 11.6977,2.4457 9.5,1.0807 9.5,1.0807 3,0.3497 3,0.3498 19.7784,0.1498 19.7785,0.1498 14.7215,-1.5337 z m -52.993,-133.9455 -8.7146,-1.4284 -9.2854,-3.1031 -9.2854,-3.1032 -7.5,-4.0183 -7.5,-4.0182 -7.0871,-5.406 -7.0872,-5.4059 -4.9558,-5.2689 -4.9558,-5.2688 -3.7231,-6.6911 -3.723,-6.6911 -3.4039,-8.8138 -3.4039,-8.8137 -1.7064,-8.4217 -1.7065,-8.4218 0.5344,-12.5734 0.5343,-12.5734 2.1631,-7.5 2.163,-7.5 3.8425,-8.204 3.8426,-8.2041 6.3073,-9.2959 6.3074,-9.296 14.029,-14.0663 14.0291,-14.0663 15,-11.1769 15,-11.177 1,0.036 1,0.036 64.5,86.0878 64.5,86.0878 0.7558,1.2906 0.7558,1.2907 -8.9365,5.114 -8.9365,5.1139 -12.3193,5.8882 -12.3193,5.8882 -13.4988,4.6193 -13.4988,4.6193 -12.0012,2.4942 -12.0012,2.4941 -15,0.4374 -15,0.4374 z m 7.5425,-412.3057 -17.1722,-25.7151 -2.973,-8 -2.9731,-8 -1.7973,-8 -1.7973,-8 0.01,-9 0.01,-9 1.7755,-6 1.7755,-6 2.5915,-4.7884 2.5915,-4.7884 4.2299,-3.899 4.23,-3.8991 4.8829,-2.4743 4.8829,-2.4744 5.9573,-1.8104 5.9573,-1.8104 12,0.087 12,0.087 7.6435,2.0673 7.6436,2.0672 6.1904,3.1249 6.1903,3.1249 4.4162,4.0707 4.4161,4.0707 3.0097,6.1225 3.0096,6.1226 1.1016,6.2754 1.1017,6.2754 -1.1873,8.2246 -1.1872,8.2246 -2.482,7.4435 -2.482,7.4435 -5.5331,10.8173 -5.5332,10.8173 -21.8953,21.2347 -21.8953,21.2346 -0.7637,0.2197 -0.7636,0.2196 -17.1721,-25.7151 z m -332.3279,151.2813 v -377.5035 l -135.75,0.2536 -135.75,0.2536 v 60.4999 60.5 l 61.25,0.2577 61.25,0.2577 v 316.4923 316.4923 h 74.5 74.5 z m 960.75131,-0.2464 0.2513,-377.2499 h -136.00131 -136.0013 v 60.4999 60.5 h 61.5 61.5 v 317.0064 317.0064 l 74.25001,-0.2564 74.25,-0.2564 z"
         id="path9673"
         inkscape:connector-curvature="0" />
    </clipPath>
  </defs>
  <sodipodi:namedview
     pagecolor="#ffffff"
     bordercolor="#666666"
     borderopacity="1"
     objecttolerance="10"
     gridtolerance="10"
     guidetolerance="10"
     inkscape:pageopacity="0"
     inkscape:pageshadow="2"
     inkscape:window-width="1920"
     inkscape:window-height="1017"
     id="namedview4759"
     showgrid="false"
     inkscape:lockguides="false"
     inkscape:zoom="0.125"
     inkscape:cx="955.42975"
     inkscape:cy="2131.0413"
     inkscape:window-x="-8"
     inkscape:window-y="-8"
     inkscape:window-maximized="1"
     inkscape:current-layer="g9724"
     showguides="true"
     inkscape:guide-bbox="true">
    <sodipodi:guide
       position="2672,1688"
       orientation="0,1"
       id="guide9696"
       inkscape:locked="false" />
    <sodipodi:guide
       position="1240,-72"
       orientation="1,0"
       id="guide9700"
       inkscape:locked="false" />
  </sodipodi:namedview>
  <g
     id="g9735">
    <path
       inkscape:connector-curvature="0"
       id="path5053"
       d="M 0.02,617.5 0,2255.0133 149.0095,2335.6371 V 766.41086 Z"
       style="fill:#ececec;stroke:none;stroke-width:1px;stroke-linecap:butt;stroke-linejoin:miter;stroke-opacity:1;fill-opacity:1" />
    <path
       inkscape:connector-curvature="0"
       id="path5055"
       d="m 2480,620.21458 -0.089,1633.43572 -146.8163,81.0021 L 2334,765.20862 Z"
       style="fill:#ececec;stroke:none;stroke-width:1px;stroke-linecap:butt;stroke-linejoin:miter;stroke-opacity:1;fill-opacity:1" />
    <g
       id="g9724">
      <g
         id="g5122"
         transform="matrix(1,0,0,0.99900904,0,2.9147217)">
        <rect
           y="105.00002"
           x="492"
           height="2068"
           width="1444"
           id="rect5065"
           style="opacity:1;fill:#003d8f;fill-opacity:1;stroke:none;stroke-width:2.14066482;stroke-miterlimit:4;stroke-dasharray:none;stroke-dashoffset:0;stroke-opacity:1" />
        <path
           inkscape:connector-curvature="0"
           id="path4765"
           d="m 1228.0095,2935.3414 c -5.225,-3.0196 -12.3263,-7.0471 -15.7806,-8.9501 -3.4543,-1.9029 -7.9543,-4.4107 -10,-5.5729 -2.0457,-1.1621 -6.1944,-3.4636 -9.2194,-5.1143 -3.025,-1.6507 -7.525,-4.1249 -10,-5.4982 -2.475,-1.3733 -6.975,-3.8483 -10,-5.5 -8.2728,-4.5171 -13.0717,-7.1787 -17.5,-9.7059 -2.2,-1.2555 -6.025,-3.4182 -8.5,-4.806 -2.475,-1.3878 -6.075,-3.4154 -8,-4.5059 -1.925,-1.0905 -5.975,-3.3333 -9,-4.984 -3.025,-1.6507 -7.525,-4.1249 -10,-5.4982 -2.475,-1.3733 -6.975,-3.8412 -10,-5.4843 -3.025,-1.6431 -6.85,-3.772 -8.5,-4.7309 -1.65,-0.9589 -5.025,-2.8532 -7.5,-4.2095 -2.475,-1.3562 -10.575,-5.8495 -18,-9.9849 -7.425,-4.1354 -15.75,-8.7718 -18.5,-10.3031 -2.75,-1.5313 -7.475,-4.1356 -10.5,-5.7873 -7.6447,-4.1742 -12.8652,-7.0635 -17.2194,-9.5302 -2.0457,-1.159 -6.7707,-3.7832 -10.5,-5.8318 -3.7293,-2.0485 -11.0008,-6.1139 -16.1588,-9.0342 -5.158,-2.9203 -9.5214,-5.3097 -9.6964,-5.3097 -0.1751,0 -2.9299,-1.5093 -6.1218,-3.3541 -3.192,-1.8448 -8.9536,-5.056 -12.8036,-7.136 -3.85,-2.0801 -11.95,-6.572 -18,-9.9819 -6.05,-3.41 -13.475,-7.5583 -16.5,-9.2185 -3.025,-1.6602 -7.525,-4.1455 -10,-5.5228 -2.475,-1.3774 -16.875,-9.3931 -32,-17.8127 -15.125,-8.4196 -29.3,-16.3043 -31.5,-17.5215 -2.2,-1.2173 -28.525,-15.8213 -58.5,-32.4533 -29.975,-16.632 -56.75,-31.4843 -59.5,-33.0051 -16.2387,-8.9803 -35.9729,-19.956 -66.5,-36.9856 -18.975,-10.5852 -36.3,-20.2442 -38.5,-21.4644 -2.2,-1.2202 -24.475,-13.5984 -49.5,-27.5071 -25.025,-13.9087 -47.3,-26.2848 -49.5,-27.5025 -2.2,-1.2176 -16.15,-8.9707 -31,-17.2291 -14.85,-8.2583 -30.15,-16.7298 -34,-18.8254 -3.85,-2.0957 -11.95,-6.5965 -18,-10.002 -6.05,-3.4054 -13.7,-7.6717 -17,-9.4806 -3.3,-1.8089 -9.375,-5.1828 -13.5,-7.4974 -4.125,-2.3146 -10.2,-5.698 -13.5,-7.5185 -3.3,-1.8205 -8.025,-4.4273 -10.5,-5.7928 -2.475,-1.3655 -7.875,-4.3754 -12,-6.6887 -4.125,-2.3133 -9.525,-5.3231 -12,-6.6885 -2.475,-1.3655 -24.975,-13.864 -50,-27.7745 -25.025,-13.9105 -47.525,-26.4164 -50,-27.7909 -8.1585,-4.5308 -67.4264,-37.5311 -71,-39.5328 -8.3788,-4.6931 -29.923,-16.6677 -34.5,-19.1756 -2.75,-1.5069 -10.2875,-5.7009 -16.75,-9.3202 l -11.75,-6.5804 V 1551.024 766.41086 L 74.5148,691.95543 0.02,617.5 0.01,307.25 0,-3 h 1240 1240 v 311.60729 311.60729 l -73,72.49702 -73,72.49702 -0.015,784.14568 c -0.01,431.2801 -0.3472,784.6673 -0.7528,785.3047 -0.4056,0.6375 -3.6612,2.7055 -7.2347,4.5955 -7.8475,4.1507 -17.4097,9.3794 -21.4972,11.7548 -1.65,0.9589 -5.025,2.8605 -7.5,4.2257 -2.475,1.3652 -6.075,3.3723 -8,4.4603 -1.925,1.0879 -6.2,3.4671 -9.5,5.2871 -3.3,1.8201 -9.375,5.2024 -13.5,7.5163 -12.6858,7.1162 -17.2864,9.6756 -23,12.7954 -9.2455,5.0483 -17.8195,9.8172 -27,15.0178 -1.925,1.0905 -5.975,3.3333 -9,4.984 -3.025,1.6507 -7.525,4.1249 -10,5.4982 -2.475,1.3733 -6.975,3.8412 -10,5.4843 -3.025,1.6431 -6.85,3.772 -8.5,4.7309 -1.65,0.9589 -5.1375,2.9241 -7.75,4.3671 -5.1102,2.8226 -12.1278,6.7507 -17.75,9.9355 -1.925,1.0905 -5.975,3.3333 -9,4.984 -3.025,1.6507 -7.525,4.1249 -10,5.4982 -2.475,1.3733 -6.975,3.8483 -10,5.5 -3.025,1.6517 -7.525,4.1267 -10,5.5 -2.475,1.3733 -6.975,3.8412 -10,5.4843 -3.025,1.6431 -6.85,3.772 -8.5,4.7309 -3.3108,1.9241 -10.0781,5.6863 -18.5,10.2848 -9.2455,5.0483 -17.8195,9.8172 -27,15.0178 -1.925,1.0905 -5.975,3.3333 -9,4.984 -3.025,1.6507 -7.525,4.1249 -10,5.4982 -2.475,1.3733 -6.975,3.8412 -10,5.4843 -3.025,1.6431 -6.85,3.772 -8.5,4.7309 -3.5239,2.0479 -10.7912,6.0819 -18.5,10.2691 -3.025,1.6431 -6.85,3.772 -8.5,4.7309 -4.7716,2.773 -13.5199,7.6354 -27,15.0069 -3.3,1.8045 -8.025,4.4046 -10.5,5.7779 -2.475,1.3733 -6.975,3.8412 -10,5.4843 -3.025,1.6431 -6.85,3.7726 -8.5,4.7322 -1.65,0.9596 -5.7,3.2142 -9,5.0102 -3.3,1.7961 -10.95,6.0523 -17,9.4584 -6.05,3.406 -13.475,7.5503 -16.5,9.2095 -3.025,1.6592 -7.3,4.0487 -9.5,5.3101 -2.2,1.2614 -6.7,3.7332 -10,5.4929 -8.7365,4.6585 -17.1953,9.3326 -23.8036,13.1531 -3.1919,1.8453 -5.9382,3.3552 -6.1029,3.3552 -0.1646,0 -8.2844,4.5 -18.044,10 -9.7595,5.5 -17.9059,10 -18.1031,10 -0.1971,0 -2.6538,1.3534 -5.4593,3.0076 -2.8055,1.6542 -7.8878,4.5179 -11.294,6.3639 -3.4062,1.846 -7.9931,4.3788 -10.1931,5.6285 -2.2,1.2497 -6.925,3.8569 -10.5,5.7939 -3.575,1.9369 -8.075,4.4063 -10,5.4875 -6.5018,3.6516 -35.3384,19.6962 -43.75,24.3422 -2.6125,1.443 -6.1,3.4082 -7.75,4.3671 -1.65,0.9589 -5.5875,3.1532 -8.75,4.8764 -14.0635,7.6626 -23.2755,12.7342 -28.75,15.8282 -1.925,1.0879 -6.2,3.4566 -9.5,5.2637 -3.3,1.8071 -7.35,4.0703 -9,5.0292 -1.65,0.959 -6.15,3.4413 -10,5.5163 -3.85,2.075 -10.375,5.6692 -14.5,7.9871 -11.8573,6.6627 -17.0976,9.5796 -23,12.8025 -7.9984,4.3673 -12.9731,7.1237 -17.5,9.6964 -2.2,1.2503 -6.7,3.7258 -10,5.5011 -9.7679,5.2547 -17.5854,9.5647 -24.5,13.5073 -3.575,2.0384 -9.65,5.4099 -13.5,7.4923 -3.85,2.0823 -10.375,5.6825 -14.5,8.0004 -8.2545,4.6383 -14.7629,8.2707 -21.25,11.8598 -3.9324,2.1757 -6.5601,3.6175 -21.75,11.9344 -7.7857,4.2629 -12.5681,6.9355 -19.8461,11.0909 -3.4903,1.9928 -6.5037,3.6233 -6.6964,3.6233 -0.1927,0 -2.962,1.5099 -6.1539,3.3552 -3.192,1.8454 -8.2786,4.705 -11.3036,6.3546 -8.2187,4.4818 -15.1365,8.3262 -18.5,10.2809 -1.65,0.9589 -5.475,3.0869 -8.5,4.7291 -3.025,1.6421 -7.3,4.0112 -9.5,5.2648 -2.2,1.2536 -6.7,3.728 -10,5.4987 -3.3,1.7708 -8.25,4.4915 -11,6.046 -2.75,1.5545 -6.8,3.7589 -9,4.8986 -2.2,1.1396 -4.225,2.2971 -4.5,2.5721 -0.275,0.275 -2.3,1.4572 -4.5,2.627 -7.842,4.1701 -16.0461,8.6445 -19,10.3624 -1.65,0.9596 -5.475,3.0882 -8.5,4.7304 -3.025,1.6421 -7.3,4.0155 -9.5,5.2743 -4.3784,2.5052 -9.071,5.1094 -17.5,9.7118 -3.025,1.6517 -7.525,4.1267 -10,5.5 -5.4635,3.0315 -14.5799,8.0263 -22,12.0537 -3.025,1.6419 -6.558,3.6453 -7.851,4.4521 -1.2931,0.8067 -4.8931,2.8435 -8,4.5261 -3.107,1.6827 -7.5775,4.1175 -9.9345,5.4108 -2.357,1.2933 -4.832,2.3135 -5.5,2.2672 -0.668,-0.046 -5.4895,-2.5548 -10.7145,-5.5744 z m 248.5679,-861.7559 c 0.4289,-1.7088 -0.035,-319.689 -0.4961,-340.0855 -0.6214,-27.4846 -3.6601,-70.6428 -6.0551,-86 -2.0446,-13.1097 -6.7829,-31.6552 -9.9644,-39 -0.4764,-1.1 -1.5392,-3.8 -2.3618,-6 -0.8225,-2.2 -5.1846,-11.6357 -9.6936,-20.9683 -9.0526,-18.7368 -12.3412,-26.5207 -11.5421,-27.3198 0.2904,-0.2904 5.5944,-0.9197 11.7866,-1.3984 17.122,-1.3237 45.88,-7.7011 78.7586,-17.4657 4.675,-1.3884 9.85,-2.8849 11.5,-3.3256 7.0198,-1.8748 37.0355,-12.2386 49.381,-17.0502 25.9311,-10.1067 59.4289,-28.335 85.913,-46.7508 22.7734,-15.8355 37.4907,-28.3153 59.206,-50.2047 23.2605,-23.4469 39.4238,-44.1601 56.8633,-72.8701 5.5679,-9.1662 20.1367,-37.0428 20.1367,-38.5305 0,-0.3112 1.396,-3.6137 3.1022,-7.339 4.4801,-9.7816 13.3394,-36.3784 16.8435,-50.566 9.6661,-39.137 13.6788,-89.9308 12.7356,-161.2109 -0.5032,-38.0315 -1.0119,-49.4133 -3.1957,-71.5 -2.0606,-20.83999 -2.536,-25.31099 -3.4025,-31.99999 -7.7636,-59.9267 -19.3642,-101.6518 -39.2015,-141 -11.4639,-22.7393 -22.3703,-38.5334 -46.0987,-66.75751 -4.2806,-5.09162 -7.7829,-9.63858 -7.7829,-10.10435 0,-0.46578 2.4309,-7.80651 5.402,-16.31273 12.4809,-35.73249 15.9603,-60.11073 15.2466,-106.82542 -0.6305,-41.27028 -4.1725,-65.925 -15.1566,-105.5 -0.9159,-3.3 -2.0392,-7.35 -2.4962,-9 -6.9716,-25.17183 -9.1399,-27.98058 -20.9958,-27.1976 -11.9526,0.78935 -44.4479,12.98942 -72,27.03176 -21.7428,11.08157 -41.4442,27.10937 -73.51,59.80314 -26.784,27.30861 -42.5785,45.85691 -55.0709,64.67277 -0.1133,0.17055 -6.5597,-2.87288 -14.3255,-6.76317 -37.8613,-18.96678 -69.8821,-27.44434 -132.0936,-34.97198 -8.8857,-1.07518 -21.6411,-2.20982 -48.5,-4.31425 -21.676,-1.69835 -117.7673,-1.68038 -138,0.0258 -21.718,1.83144 -34.9695,3.10994 -43.5,4.19687 -4.125,0.52559 -11.55,1.45753 -16.5,2.07098 -11.4218,1.41549 -28.1557,4.28012 -41,7.01868 -5.5,1.17267 -11.8,2.5161 -14,2.98539 -24.2652,5.17617 -51.227,15.78755 -63.4036,24.95381 l -5.4036,4.0677 -2.9382,-2.78995 c -1.616,-1.53447 -8.613,-9.53995 -15.5489,-17.78995 -43.7221,-52.00566 -87.5673,-90.112 -129.3419,-112.41254 -22.4251,-11.97123 -45.434,-16.96739 -59.2478,-12.86514 -6.2713,1.86237 -12.7352,8.90422 -15.8886,17.30912 -6.0194,16.04375 -13.1018,44.43339 -16.5819,66.46856 -0.5646,3.575 -1.6158,10.1 -2.336,14.5 -1.832,11.19204 -1.8048,69.05806 0.037,80 3.1403,18.65122 5.3557,29.68093 8.1347,40.5 9.8924,38.51365 10.3961,40.88473 9.1821,43.22634 -0.6483,1.25051 -4.5611,6.54866 -8.6952,11.77366 -24.3847,30.81921 -41.8908,55.77641 -48.8245,69.60551 -5.0828,10.1376 -11.231,27.8569 -15.7334,45.3444 -3.2495,12.6208 -10.0281,45.6131 -11.3107,55.0501 -0.2616,1.925 -1.1514,7.325 -1.9774,12 -0.8259,4.675 -2.4487,16.15 -3.6062,25.5 -2.5066,20.24879 -2.5351,20.51589 -5.5414,51.99999 -2.9276,30.6592 -4.3668,99.97 -2.5437,122.5 5.1349,63.456 19.802,117.4907 45.3302,167 3.8285,7.425 7.8109,14.6945 8.8497,16.1544 1.0388,1.4599 1.8888,2.9478 1.8888,3.3065 0,0.3587 4.2268,7.0393 9.3929,14.8457 36.0335,54.4492 93.2202,104.8262 151.1335,133.1367 51.8053,25.3247 121.4963,48.2228 164.4736,54.0405 6.325,0.8562 13.3,1.9722 15.5,2.48 2.2,0.5079 5.2375,1.1823 6.75,1.4988 1.5125,0.3165 2.75,1.183 2.75,1.9255 0,1.7048 -8.4903,22.3963 -13.7919,33.6119 -9.334,19.7461 -16.1758,38.8149 -20.6306,57.5 -2.3421,9.8237 -2.8279,12.594 -6.1932,35.3187 -2.1092,14.2425 -3.4918,16.4514 -13.4136,21.4298 -16.9394,8.4996 -30.4844,10.1213 -84.9707,10.1728 -48.0821,0.045 -51.8058,-0.3169 -68.5,-6.6665 -20.6386,-7.8497 -48.9429,-22.474 -63,-32.5508 -23.0943,-16.555 -45.7614,-41.1733 -66.4811,-72.204 -31.2829,-46.8503 -62.8058,-78.4173 -93.2506,-93.3809 -8.6497,-4.2513 -26.5034,-10.2897 -36.2683,-12.2663 -23.3395,-4.7246 -39.3503,-6.7113 -54.5,-6.7629 -18.2922,-0.062 -24.8554,2.4046 -29.7787,11.1924 -3.519,6.2811 8.6662,24.3937 34.7928,51.7177 31.1974,32.6271 47.4419,52.6374 69.0037,85 14.7101,22.0786 24.0056,37.847 36.2544,61.5 18.3609,35.4556 28.1669,50.8916 45.3521,71.3906 18.9442,22.5972 41.7721,42.9948 66.3757,59.3093 31.9735,21.2015 61.5073,34.4174 94.5,42.2872 19.5158,4.6551 45.8616,7.0333 78,7.0411 27.2609,0.01 45.2823,-1.2936 79.6,-5.7429 l 3.5999,-0.4668 0.6304,5.3226 c 0.3467,2.9274 0.6436,48.0182 0.6597,100.2019 0.016,52.1837 0.2766,95.2793 0.5787,95.7682 0.3176,0.5139 90.3602,0.8888 213.4713,0.8888 h 212.9219 z"
           style="fill:#003d8f;fill-opacity:1;stroke:none" />
      </g>
      <rect
         style="opacity:1;fill:#003d8f;fill-opacity:1;stroke:none;stroke-width:3.2692914;stroke-miterlimit:4;stroke-dasharray:none;stroke-dashoffset:0;stroke-opacity:1"
         id="rect9665"
         width="1758.0016"
         height="1041.6041"
         x="-2318.8655"
         y="1187.7115"
         clip-path="url(#clipPath9671)"
         transform="matrix(1.2232278,0,0,1.2232278,3116.8414,-793.69069)" />
      <path
         style="opacity:1;fill:#ffffff;fill-opacity:1;stroke:#ffffff;stroke-width:10.947;stroke-miterlimit:4;stroke-dasharray:none;stroke-dashoffset:0;stroke-opacity:1"
         d="M 635.8595,1329.2594 V 941.76487 h -74.95332 -74.95332 v -72.1249 -72.12489 h 165.46299 165.46299 v 459.61942 459.6194 H 726.36917 635.8595 Z"
         id="path14071"
         inkscape:connector-curvature="0" />
      <path
         style="opacity:1;fill:#ffffff;fill-opacity:1;stroke:#ffffff;stroke-width:9.4;stroke-miterlimit:4;stroke-dasharray:none;stroke-dashoffset:0;stroke-opacity:1"
         d="m 1175.114,1735.0319 c -74.4832,-14.0178 -142.894,-54.6754 -182.60661,-108.5262 -14.35535,-19.466 -33.2392,-54.9525 -42.69252,-80.2278 -23.42981,-62.6439 -23.1246,-129.3786 0.83916,-183.4858 22.20358,-50.133 74.58377,-106.403 139.16807,-149.503 12.445,-8.3051 23.6771,-15.9969 24.96,-17.0929 1.283,-1.0959 -8.263,-15.9901 -21.2132,-33.0981 -28.5879,-37.7664 -45.397,-66.6325 -58.6949,-100.7959 -9.9959,-25.6804 -10.0367,-25.9687 -10.0712,-71.03986 -0.033,-42.61482 0.4019,-46.29084 7.4477,-63.01393 12.5331,-29.74699 25.4098,-48.85833 49.0863,-72.85257 17.9948,-18.23639 28.0065,-25.67918 48.9016,-36.35391 71.5268,-36.54117 129.9051,-42.39319 198.737,-19.922 21.4966,7.0179 57.1941,25.78537 75.2686,39.57141 16.081,12.26557 40.1954,43.65558 52.0225,67.71819 15.7803,32.10553 20.5681,53.41137 20.3391,90.50966 -0.31,50.23761 -13.7395,90.68471 -46.1627,139.03381 -15.1808,22.6375 -60.9597,70.2423 -79.8142,82.9977 -5.7487,3.8891 -10.4106,8.3439 -10.3599,9.8995 0.133,4.0754 139.2518,191.6909 143.0691,192.943 4.0787,1.3378 13.931,-35.2737 18.051,-67.078 1.7129,-13.2229 2.7249,-44.0899 2.2489,-68.5934 l -0.8654,-44.5518 h 76.0039 76.0039 l -1.43,70.0035 c -1.5817,77.4237 -6.5796,113.7703 -21.9694,159.7696 -10.3329,30.8843 -18.3749,46.8188 -35.0563,69.4606 -7.6807,10.4251 -12.2645,19.2178 -11.0587,21.2132 1.1326,1.8744 27.4574,35.8642 58.4996,75.5328 31.0422,39.6687 57.676,73.7159 59.1863,75.6605 2.1847,2.8129 -16.8966,3.5355 -93.3612,3.5355 h -96.1071 l -17.9118,-25.4193 -17.9118,-25.4193 -10.0711,5.9656 c -48.7645,28.8854 -90.7407,46.529 -138.178,58.0793 -25.652,6.246 -38.0736,7.5173 -81.1967,8.3108 -36.481,0.6712 -57.2009,-0.2469 -73.1,-3.2391 z m 100.5379,-159.9184 c 8.2437,-1.6761 20.716,-5.0028 27.7164,-7.3926 19.1945,-6.5527 73.5391,-32.6672 73.5391,-35.3381 0,-3.8221 -158.8556,-214.4371 -161.7384,-214.4371 -1.4544,0 -12.4333,7.4521 -24.3977,16.5602 -66.6415,50.7324 -91.6286,104.5909 -74.5461,160.6804 10.106,33.1826 27.6055,53.8869 59.1006,69.9244 23.809,12.1236 68.151,16.5447 100.3261,10.0028 z m -0.8134,-498.5556 c 26.8722,-26.3454 37.086,-41.3928 44.0781,-64.9375 11.6721,-39.30435 -1.9601,-65.74321 -39.7643,-77.12062 -27.1957,-8.1847 -60.8697,-1.5972 -75.3782,14.74589 -13.5917,15.31043 -17.2064,43.92132 -9.085,71.90893 5.0538,17.4161 45.995,82.218 51.2521,81.1219 1.8612,-0.388 14.865,-11.9614 28.8973,-25.7186 z"
         id="path14073"
         inkscape:connector-curvature="0" />
      <path
         style="opacity:1;fill:#ffffff;fill-opacity:1;stroke:#ffffff;stroke-width:9.24695206;stroke-miterlimit:4;stroke-dasharray:none;stroke-dashoffset:0;stroke-opacity:1"
         d="M 1812.4852,1329.2594 V 941.76487 h -74.9533 -74.9534 v -72.1249 -72.12489 h 164.0488 164.0488 v 459.61942 459.6194 h -89.0955 -89.0954 z"
         id="path14075"
         inkscape:connector-curvature="0" />
    </g>
  </g>
</svg>
