<?xml version="1.0" encoding="UTF-8" standalone="no"?>
<!-- Generator: Adobe Illustrator 19.0.0, SVG Export Plug-In . SVG Version: 6.00 Build 0)  -->

<svg
   xmlns:dc="http://purl.org/dc/elements/1.1/"
   xmlns:cc="http://creativecommons.org/ns#"
   xmlns:rdf="http://www.w3.org/1999/02/22-rdf-syntax-ns#"
   xmlns:svg="http://www.w3.org/2000/svg"
   xmlns="http://www.w3.org/2000/svg"
   xmlns:sodipodi="http://sodipodi.sourceforge.net/DTD/sodipodi-0.dtd"
   xmlns:inkscape="http://www.inkscape.org/namespaces/inkscape"
   version="1.1"
   id="Capa_1"
   x="0px"
   y="0px"
   viewBox="0 0 1699.9999 1945.9999"
   xml:space="preserve"
   sodipodi:docname="img-baja-logica.svg"
   width="1700"
   height="1946"
   inkscape:version="0.92.4 (5da689c313, 2019-01-14)"><metadata
   id="metadata18750"><rdf:RDF><cc:Work
       rdf:about=""><dc:format>image/svg+xml</dc:format><dc:type
         rdf:resource="http://purl.org/dc/dcmitype/StillImage" /><dc:title></dc:title></cc:Work></rdf:RDF></metadata><defs
   id="defs18748" /><sodipodi:namedview
   pagecolor="#ffffff"
   bordercolor="#666666"
   borderopacity="1"
   objecttolerance="10"
   gridtolerance="10"
   guidetolerance="10"
   inkscape:pageopacity="0"
   inkscape:pageshadow="2"
   inkscape:window-width="1920"
   inkscape:window-height="1017"
   id="namedview18746"
   showgrid="false"
   fit-margin-top="0"
   fit-margin-left="0"
   fit-margin-right="0"
   fit-margin-bottom="0"
   inkscape:zoom="0.23039179"
   inkscape:cx="1136.4726"
   inkscape:cy="463.58764"
   inkscape:window-x="1912"
   inkscape:window-y="-8"
   inkscape:window-maximized="1"
   inkscape:current-layer="Capa_1" />
<g
   id="g18713"
   transform="matrix(3.7983552,0,0,3.7995049,-122.70243,0)"
   style="fill:#ff0000">
	<g
   id="g18711"
   style="fill:#ff0000">
		<path
   d="m 479.046,283.925 c -1.664,-3.989 -5.547,-6.592 -9.856,-6.592 H 352.305 V 10.667 C 352.305,4.779 347.526,0 341.638,0 H 170.971 c -5.888,0 -10.667,4.779 -10.667,10.667 V 277.334 H 42.971 c -4.309,0 -8.192,2.603 -9.856,6.571 -1.643,3.989 -0.747,8.576 2.304,11.627 l 212.8,213.504 c 2.005,2.005 4.715,3.136 7.552,3.136 2.837,0 5.547,-1.131 7.552,-3.115 L 476.742,295.553 c 3.051,-3.052 3.968,-7.638 2.304,-11.628 z"
   id="path18709"
   inkscape:connector-curvature="0"
   style="fill:#ff0000" />
	</g>
</g>
<g
   id="g18715"
   transform="translate(742.46308,459.87638)">
</g>
<g
   id="g18717"
   transform="translate(742.46308,459.87638)">
</g>
<g
   id="g18719"
   transform="translate(742.46308,459.87638)">
</g>
<g
   id="g18721"
   transform="translate(742.46308,459.87638)">
</g>
<g
   id="g18723"
   transform="translate(742.46308,459.87638)">
</g>
<g
   id="g18725"
   transform="translate(742.46308,459.87638)">
</g>
<g
   id="g18727"
   transform="translate(742.46308,459.87638)">
</g>
<g
   id="g18729"
   transform="translate(742.46308,459.87638)">
</g>
<g
   id="g18731"
   transform="translate(742.46308,459.87638)">
</g>
<g
   id="g18733"
   transform="translate(742.46308,459.87638)">
</g>
<g
   id="g18735"
   transform="translate(742.46308,459.87638)">
</g>
<g
   id="g18737"
   transform="translate(742.46308,459.87638)">
</g>
<g
   id="g18739"
   transform="translate(742.46308,459.87638)">
</g>
<g
   id="g18741"
   transform="translate(742.46308,459.87638)">
</g>
<g
   id="g18743"
   transform="translate(742.46308,459.87638)">
</g>
</svg>