<?xml version="1.0" encoding="UTF-8" standalone="no"?>
<!-- Created with Inkscape (http://www.inkscape.org/) -->

<svg
   xmlns:dc="http://purl.org/dc/elements/1.1/"
   xmlns:cc="http://creativecommons.org/ns#"
   xmlns:rdf="http://www.w3.org/1999/02/22-rdf-syntax-ns#"
   xmlns:svg="http://www.w3.org/2000/svg"
   xmlns="http://www.w3.org/2000/svg"
   xmlns:sodipodi="http://sodipodi.sourceforge.net/DTD/sodipodi-0.dtd"
   xmlns:inkscape="http://www.inkscape.org/namespaces/inkscape"
   version="1.1"
   id="svg4747"
   width="1333.6752"
   height="1333.2627"
   viewBox="0 0 1333.6752 1333.2627"
   sodipodi:docname="img-perfil.svg"
   inkscape:version="0.92.4 (5da689c313, 2019-01-14)">
  <metadata
     id="metadata4753">
    <rdf:RDF>
      <cc:Work
         rdf:about="">
        <dc:format>image/svg+xml</dc:format>
        <dc:type
           rdf:resource="http://purl.org/dc/dcmitype/StillImage" />
        <dc:title></dc:title>
      </cc:Work>
    </rdf:RDF>
  </metadata>
  <defs
     id="defs4751" />
  <sodipodi:namedview
     pagecolor="#ffffff"
     bordercolor="#666666"
     borderopacity="1"
     objecttolerance="10"
     gridtolerance="10"
     guidetolerance="10"
     inkscape:pageopacity="0"
     inkscape:pageshadow="2"
     inkscape:window-width="1049"
     inkscape:window-height="767"
     id="namedview4749"
     showgrid="false"
     fit-margin-top="0"
     fit-margin-left="0"
     fit-margin-right="0"
     fit-margin-bottom="0"
     inkscape:zoom="0.18782524"
     inkscape:cx="869.07079"
     inkscape:cy="726.81571"
     inkscape:window-x="2172"
     inkscape:window-y="104"
     inkscape:window-maximized="0"
     inkscape:current-layer="svg4747" />
  <path
     style="fill:#000000"
     d="m 629.76455,1332.3936 -14,-0.8692 -16,-1.6034 -16,-1.6034 -16.5,-2.5052 -16.5,-2.5052 -14.94358,-2.9842 -14.94358,-2.9842 -14.05642,-3.5269 -14.05642,-3.5269 -13.63038,-3.9251 -13.63038,-3.9251 -14.86962,-5.1159 -14.86962,-5.116 -17.44393,-7.0207 -17.44393,-7.0208 -15.83426,-7.3539 -15.83425,-7.3538 -15.22181,-8.17 -15.22182,-8.1699 -12.5,-7.502 -12.5,-7.5021 -10,-6.4748 -10,-6.4748 -13.5,-9.6183 -13.5,-9.6183 -14.76336,-11.7711 -14.76336,-11.7712 -12.20687,-10.7352 -12.20686,-10.7353 -17.02978,-17.0298 -17.02977,-17.0297 -10.73525,-12.2069 -10.73525,-12.2069 -11.77116,-14.7633 -11.77116,-14.7634 -9.61829,-13.5 -9.61828,-13.5 -6.47481,-10 -6.47481,-10 -7.50204,-12.5 -7.50204,-12.49998 -8.16994,-15.2218 -8.16993,-15.2218 -7.326,-15.7782 -7.32599,-15.7782 -6.29053,-15.5 -6.29054,-15.5 -5.34368,-15.2532 -5.34369,-15.25315 -3.98574,-13.32366 -3.98575,-13.32362 -3.98739,-15.92321 -3.98739,-15.92321 -2.99342,-15 -2.99343,-15 -2.50106,-16.5 -2.50106,-16.5 -1.51779,-15 -1.5178,-15 -1.16516,-21 -1.16517,-21 0.61932,-25.5 0.61932,-25.5 1.5062,-17 1.5062,-17 1.53128,-12 1.53127,-12 2.9957,-17.5 2.9957,-17.5 3.57569,-15.5 3.57569,-15.5 3.48268,-13 3.48268,-13 6.79181,-20.5 6.7918,-20.5 6.12696,-15.30961 6.12696,-15.30962 7.56433,-16.69038 7.56434,-16.69039 9.07683,-17 9.07684,-17 8.98647,-15 8.98647,-15 9.51265,-14 9.51264,-14 9.81506,-13.1209 9.81506,-13.12089 11.11103,-13.37911 11.11104,-13.3791 14.99752,-16.18874 14.99753,-16.18874 16.18874,-14.99753 16.18874,-14.99752 13.3791,-11.11104 13.37911,-11.11103 13.12089,-9.81506 13.1209,-9.81506 14,-9.51264 14,-9.51265 15,-8.98647 15,-8.98647 17,-9.07659 17,-9.07658 17.5,-7.9128 17.5,-7.9128 14.22765,-5.67323 14.22765,-5.67324 20.77235,-6.90429 20.77235,-6.90429 13,-3.47571 13,-3.4757 15.79617,-3.6489 15.79617,-3.6489 20.20383,-3.37883 20.20383,-3.37884 14,-1.55445 14,-1.55446 13.5,-1.21905 13.5,-1.21906 h 36.5 36.5 l 13.5,1.21906 13.5,1.21905 13.99999,1.55446 14,1.55445 20.2038,3.37884 20.2039,3.37883 15.7961,3.6489 15.7962,3.6489 13,3.4757 13,3.47571 20.56036,6.83358 20.5604,6.83357 17.8836,7.21945 17.8835,7.21945 15.8342,7.35388 15.8343,7.35388 15.2218,8.16993 15.2218,8.16994 12.5,7.50204 12.5,7.50204 10,6.4788 10,6.47881 13.3058,9.44385 13.3058,9.44385 14.9575,11.9416 14.9576,11.9416 12.2069,10.73525 12.2069,10.73525 17.0297,17.02977 17.0298,17.02978 10.7353,12.20686 10.7352,12.20687 11.7712,14.76336 11.7711,14.76336 9.6183,13.5 9.6183,13.5 6.4748,10 6.4748,10 7.5021,12.5 7.502,12.5 8.1699,15.22182 8.17,15.22181 7.3538,15.83425 7.3539,15.83426 7.1059,17.60223 7.1059,17.60223 6.4691,19.3417 6.469,19.3417 3.9345,14.5 3.9345,14.5 3.6682,15.79617 3.6682,15.79617 3.3788,20.20383 3.3788,20.20383 1.5545,14 1.5545,14 1.219,13.5 1.2191,13.5 v 36.5 36.5 l -1.2191,13.5 -1.219,13.5 -1.5545,14 -1.5545,14 -3.3788,20.20383 -3.3788,20.20383 -3.6682,15.79617 -3.6682,15.79617 -3.9345,14.5 -3.9345,14.5 -6.469,19.3417 -6.4691,19.34175 -7.1059,17.6022 -7.1059,17.6023 -7.3539,15.8342 -7.3538,15.8343 -8.1899,15.2218 -8.1899,15.2218 -7.4747,12.49998 -7.4747,12.5 -7.2332,11.1103 -7.2332,11.1103 -9.2784,12.8897 -9.2784,12.8897 -11.1503,14 -11.1503,14 -11.445,12.9918 -11.445,12.9919 -16.0082,16.0081 -16.0081,16.0082 -12.9919,11.445 -12.9918,11.445 -14,11.1503 -14,11.1503 -12.8897,9.2784 -12.8897,9.2784 -11.1103,7.2332 -11.1103,7.2332 -12.5,7.4747 -12.5,7.4747 -15.2218,8.1899 -15.2218,8.1899 -15.8343,7.3538 -15.8342,7.3539 -17.6023,7.1059 -17.6022,7.1059 -19.3417,6.4691 -19.34166,6.469 -14.5,3.9345 -14.5,3.9345 -15.5,3.595 -15.5,3.595 -17.5,2.9957 -17.5,2.9957 -12,1.5312 -11.99999,1.5313 -17,1.5376 -17,1.5375 -31.5,0.3817 -31.5,0.3817 z m 69.5,-134.0232 16.5,-1.0309 13,-1.4791 13,-1.4792 14.99999,-2.5327 15,-2.5327 13.5,-3.0669 13.5,-3.0668 13.5,-3.8203 13.5,-3.8203 13.276,-4.5078 13.2759,-4.5077 14.2241,-5.6655 14.22396,-5.6656 19,-9.1986 19,-9.1986 13.5,-7.8325 13.5,-7.8326 13,-8.4867 13,-8.4867 13.0246,-9.6987 13.0246,-9.6986 12.4754,-10.4248 12.4754,-10.4249 16.869,-16.5007 16.8691,-16.5008 11.2323,-13 11.2324,-13 6.7803,-8.49998 6.7803,-8.5 8.3683,-11.7531 8.3683,-11.7532 v -1.2576 -1.2576 l -6.8517,-8.4893 -6.8516,-8.4892 -10.8984,-10.5046 -10.8983,-10.5045 -11.5,-8.6212 -11.5,-8.6211 -8.5,-5.459 -8.5,-5.4589 -10.5,-6.0416 -10.5,-6.0416 -12,-5.99805 -12,-5.9981 -12,-5.235 -12,-5.23512 -14,-5.47288 -14,-5.47287 -20.6484,-6.87048 -20.6484,-6.87049 -18.8206,-5.15324 -18.82046,-5.15323 -16.5311,-3.82258 -16.531,-3.82258 -18,-3.51089 -18,-3.5109 -16.5,-2.52847 -16.5,-2.52848 -17.99999,-2.00549 -18,-2.00549 -14.5,-1.01672 -14.5,-1.01671 h -23.5 -23.5 l -14.5,1.01671 -14.5,1.01672 -18,2.00549 -18,2.00549 -16.5,2.52848 -16.5,2.52847 -18,3.5109 -18,3.51089 -16.53102,3.82258 -16.53103,3.82258 -18.82057,5.15323 -18.82058,5.15324 -20.6484,6.87049 -20.6484,6.87048 -14,5.47287 -14,5.47288 -12,5.23512 -12,5.235 -12,5.9981 -12,5.99805 -10.5,6.0304 -10.5,6.0304 -11,7.1871 -11,7.1872 -9.5,7.3643 -9.5,7.3644 -10.38685,10.0443 -10.38685,10.0444 -6.86315,8.4892 -6.86315,8.4893 v 1.2494 1.2495 l 6.17135,8.7613 6.17136,8.7613 6.53411,8.5 6.53412,8.5 9.96233,11.99998 9.96234,12 20.5822,20.5478 20.58219,20.5478 12.44452,10.3519 12.44451,10.3519 12.05549,8.9949 12.05548,8.9949 11.5,7.7049 11.5,7.7049 15,8.8133 15,8.8134 20,9.7474 20,9.7475 14.22403,5.6474 14.22403,5.6473 13.27597,4.5077 13.27597,4.5078 13.5,3.8203 13.5,3.8203 13.5,3.0738 13.5,3.0737 14.5,2.4713 14.5,2.4713 14.0076,1.5972 14.0076,1.5972 12.9924,0.8269 12.9924,0.8269 18.5,0.1405 18.5,0.1405 z m -1,-584.58692 10.5,-1.49138 11.74172,-2.92126 11.74173,-2.92126 9.75827,-3.62198 9.75827,-3.62199 11.2016,-5.49441 11.2017,-5.49441 10.5884,-6.89244 10.5885,-6.89244 6.7099,-5.36215 6.7099,-5.36214 7.8215,-7.31406 7.8216,-7.31407 8.0208,-9.58441 8.0209,-9.58441 6.9517,-10.36944 6.9517,-10.36944 6.7804,-13.70628 6.7803,-13.70629 4.12436,-12.42427 4.1243,-12.42428 2.0132,-9.069 2.0133,-9.06899 1.5379,-11.73222 1.538,-11.73222 v -14.9882 -14.9882 l -1.0697,-9.71058 -1.0697,-9.71059 -2.4836,-11.82728 -2.4837,-11.82727 -3.819,-11.24985 -3.81896,-11.24985 -4.0786,-9.18867 -4.0786,-9.18867 -5.689,-9.7342 -5.6889,-9.73421 -7.3291,-10.11919 -7.3291,-10.1192 -9.781,-10.30329 -9.781,-10.3033 -9,-7.50674 -9,-7.50675 -10.5,-6.95862 -10.5,-6.95861 -13.8419,-6.79098 -13.8418,-6.79098 -12.48931,-4.08182 -12.48928,-4.08181 -12.16885,-2.42638 -12.16885,-2.42638 -10.92368,-1.06297 -10.92368,-1.06298 h -9.65264 -9.65264 l -10.92368,1.06298 -10.92368,1.06297 -12.16885,2.42638 -12.16885,2.42638 -12.68313,4.14517 -12.68312,4.14517 -14.64803,7.29736 -14.64802,7.29736 -8.5,5.67944 -8.5,5.67945 -9.09581,7.3602 -9.09581,7.3602 -10.22038,10.61117 -10.22039,10.61116 -7.19074,9.66731 -7.19073,9.6673 -5.85534,9.81824 -5.85534,9.81824 -4.76181,10.68176 -4.76181,10.68176 -3.52447,10.5 -3.52448,10.5 -2.17179,10 -2.17178,10 -1.41014,10.5 -1.41013,10.5 -0.0195,16.19878 -0.0195,16.19879 1.53796,11.73222 1.53796,11.73222 2.01323,9.06899 2.01324,9.069 4.12433,12.42428 4.12434,12.42427 6.78035,13.70629 6.78035,13.70628 6.95173,10.36944 6.95173,10.36944 8.02085,9.58441 8.02086,9.58441 7.82153,7.31407 7.82154,7.31406 6.70993,5.36214 6.70992,5.36215 10.79008,7.03469 10.79007,7.03469 11,5.34768 11,5.34768 9.75828,3.62646 9.75827,3.62647 11.74173,2.89369 11.74172,2.8937 7.5,1.22389 7.5,1.22388 10,0.76808 10,0.76808 13.5,-0.47302 13.5,-0.47302 10.5,-1.49138 z"
     id="path4757"
     inkscape:connector-curvature="0" />
</svg>
