<?xml version="1.0" encoding="UTF-8" standalone="no"?>
<!-- Created with Inkscape (http://www.inkscape.org/) -->

<svg
   xmlns:dc="http://purl.org/dc/elements/1.1/"
   xmlns:cc="http://creativecommons.org/ns#"
   xmlns:rdf="http://www.w3.org/1999/02/22-rdf-syntax-ns#"
   xmlns:svg="http://www.w3.org/2000/svg"
   xmlns="http://www.w3.org/2000/svg"
   xmlns:sodipodi="http://sodipodi.sourceforge.net/DTD/sodipodi-0.dtd"
   xmlns:inkscape="http://www.inkscape.org/namespaces/inkscape"
   width="449.99994mm"
   height="449.99997mm"
   viewBox="0 0 449.99994 449.99997"
   version="1.1"
   id="svg8"
   inkscape:version="0.92.4 (5da689c313, 2019-01-14)"
   sodipodi:docname="img-editar.svg">
  <defs
     id="defs2" />
  <sodipodi:namedview
     id="base"
     pagecolor="#ffffff"
     bordercolor="#666666"
     borderopacity="1.0"
     inkscape:pageopacity="0.0"
     inkscape:pageshadow="2"
     inkscape:zoom="0.34"
     inkscape:cx="337.29882"
     inkscape:cy="1027.9502"
     inkscape:document-units="mm"
     inkscape:current-layer="layer1"
     showgrid="false"
     fit-margin-top="0"
     fit-margin-left="0"
     fit-margin-right="0"
     fit-margin-bottom="0"
     inkscape:window-width="1920"
     inkscape:window-height="1017"
     inkscape:window-x="1912"
     inkscape:window-y="-8"
     inkscape:window-maximized="1" />
  <metadata
     id="metadata5">
    <rdf:RDF>
      <cc:Work
         rdf:about="">
        <dc:format>image/svg+xml</dc:format>
        <dc:type
           rdf:resource="http://purl.org/dc/dcmitype/StillImage" />
        <dc:title />
      </cc:Work>
    </rdf:RDF>
  </metadata>
  <g
     inkscape:label="Capa 1"
     inkscape:groupmode="layer"
     id="layer1"
     transform="translate(118.46236,64.082714)">
    <g
       id="g4751"
       transform="matrix(0.03526968,0,0,-0.03516141,-118.46236,385.91726)"
       style="fill:#000000;stroke:none">
      <path
         id="path4749"
         d="m 11145,12790 c -302,-78 -364,-99 -510,-172 -120,-60 -213,-119 -320,-203 -44,-35 -2232,-2216 -4861,-4847 L 672,2785 565,2380 C 505,2157 449,1946 439,1910 413,1810 220,1092 203,1030 171,907 159,863 81,573 L 0,271 V 136 0 h 136 135 l 302,81 c 166,45 325,87 352,94 28,8 86,23 130,35 44,12 231,62 415,111 184,50 358,96 385,104 28,7 221,59 430,115 l 380,101 4871,4872 c 4810,4811 4872,4873 4947,4987 75,114 170,299 202,395 163,480 55,946 -313,1360 -200,225 -440,389 -687,468 -107,34 -157,44 -307,62 -136,16 -186,17 -233,5 z m -230,-667 c 69,-198 215,-426 398,-621 37,-40 67,-77 65,-82 -2,-4 -363,-362 -803,-795 C 10135,10192 9636,9699 9465,9531 9295,9362 8851,8925 8480,8560 8109,8195 7659,7751 7480,7575 7301,7398 6674,6779 6085,6200 4157,4301 3650,3801 3260,3415 1981,2149 1982,2150 1933,2129 c -71,-31 -189,-59 -247,-59 -75,0 -113,24 -170,105 -130,187 -151,289 -97,465 18,55 37,138 43,183 l 11,82 4546,4548 c 2500,2502 4572,4569 4604,4594 64,50 234,153 253,153 6,0 24,-35 39,-77 z m 774,-942 c 156,-100 296,-155 438,-175 l 83,-11 -30,-64 c -17,-35 -55,-102 -86,-150 -50,-77 -563,-593 -4719,-4750 l -4663,-4664 -83,-18 c -104,-23 -238,-24 -308,-3 -103,30 -168,124 -198,287 -13,76 -12,281 2,295 2,3 10,0 17,-6 10,-8 176,151 698,666 377,371 984,970 1350,1331 366,360 832,820 1035,1021 204,201 681,671 1060,1045 672,662 965,950 1695,1671 195,192 796,784 1335,1315 539,530 1274,1255 1635,1611 360,356 657,647 659,648 2,0 38,-22 80,-49 z M 1142,2511 c -10,-151 61,-332 210,-528 43,-56 123,-117 178,-134 84,-26 260,-28 323,-4 15,7 17,-2 17,-98 0,-300 120,-528 325,-617 28,-12 91,-29 142,-39 l 91,-16 -666,-178 c -367,-98 -671,-177 -677,-177 -5,1 -62,62 -125,137 -63,74 -141,166 -174,204 l -58,69 187,702 c 135,505 193,709 208,726 11,12 21,22 22,22 1,0 0,-31 -3,-69 z"
         inkscape:connector-curvature="0" />
    </g>
    <path
       style="opacity:1;fill:#917c6f;fill-opacity:1;stroke:#917c6f;stroke-width:1.8897638;stroke-miterlimit:4;stroke-dasharray:none;stroke-dashoffset:0;stroke-opacity:1"
       d="m 141.46786,1601.7817 c -3.70838,-3.8545 -9.21234,-10.1646 -25.92175,-29.7184 -17.361236,-20.3166 -18.141705,-21.2491 -18.14769,-21.6809 -0.0053,-0.3816 23.98436,-90.3294 31.42239,-117.8165 11.56123,-42.7242 18.21352,-65.7372 20.24719,-70.0432 0.47919,-1.0146 1.4699,-2.4209 2.20158,-3.125 l 1.33034,-1.2803 -0.3056,5.1471 c -0.16808,2.8309 -0.26493,7.1323 -0.21521,9.5588 0.31996,15.6151 7.40142,34.3589 20.26347,53.6351 6.76,10.1311 10.81589,15.0138 16.20362,19.5067 11.43252,9.5337 18.84152,11.7582 39.17781,11.7627 10.58217,0 14.95736,-0.4133 18.86565,-1.7922 l 1.56574,-0.5524 0.37313,0.9814 c 0.20523,0.5398 0.52146,6.3664 0.70274,12.948 0.33952,12.3264 0.81722,17.3612 2.39172,25.2073 5.19592,25.8924 18.96,45.6766 38.23337,54.9558 5.77483,2.7803 13.49619,4.967 24.63235,6.9758 3.4375,0.6201 6.66361,1.2254 7.16912,1.3453 0.91639,0.2172 -7.94977,2.6356 -75.93766,20.7137 -41.05313,10.916 -64.9792,17.2046 -83.43734,21.9302 -9.09926,2.3296 -16.80735,4.3096 -17.12908,4.3999 -0.37615,0.1056 -1.69186,-0.9862 -3.68589,-3.0589 z"
       id="path23231"
       inkscape:connector-curvature="0"
       transform="matrix(0.26458333,0,0,0.26458333,-118.46236,-64.082714)" />
    <path
       style="opacity:1;fill:#ffcc00;fill-opacity:1;stroke:#ffcc00;stroke-width:1.78452363;stroke-miterlimit:4;stroke-dasharray:none;stroke-dashoffset:0;stroke-opacity:1"
       d="m 320.2556,1523.334 c -10.98697,-0.7442 -17.10034,-3.1924 -23.17956,-9.2824 -4.41001,-4.4179 -6.78798,-8.1589 -9.50877,-14.9593 -4.3497,-10.8717 -5.87064,-22.3898 -5.34307,-40.463 0.1753,-6.0053 0.46796,-11.5673 0.65037,-12.3602 0.29932,-1.301 0.49524,-1.4109 2.00979,-1.1267 1.47374,0.2764 2.07833,-0.018 4.96402,-2.4198 9.51163,-7.9156 26.92707,-24.8 128.92229,-124.9907 104.52634,-102.6771 167.2425,-164.3084 176.02846,-172.9836 l 9.37849,-9.2602 70.69096,0.1319 70.69095,0.1318 -192.11467,191.6176 -192.11467,191.6176 -8.05894,1.654 c -12.87052,2.6414 -22.35609,3.4152 -33.01565,2.693 z"
       id="path23235"
       inkscape:connector-curvature="0"
       transform="matrix(0.26458333,0,0,0.26458333,-118.46236,-64.082714)" />
    <path
       style="opacity:1;fill:#ffcc00;fill-opacity:1;stroke:#ffcc00;stroke-width:0.65607513;stroke-miterlimit:4;stroke-dasharray:none;stroke-dashoffset:0;stroke-opacity:1"
       d="m 218.67735,1424.9228 c -4.14466,-0.8975 -6.80041,-2.4671 -10.47794,-6.1923 -6.97931,-7.0699 -16.8701,-23.2252 -19.94039,-32.57 -1.96408,-5.9779 -2.46631,-9.131 -2.45945,-15.4412 0.008,-7.3632 0.68014,-10.9067 4.68808,-24.7158 2.30527,-7.9427 3.70306,-14.55 4.98104,-23.5453 l 1.08488,-7.6361 88.91116,-88.6619 c 48.90113,-48.7641 116.95444,-116.6747 151.22957,-150.9125 l 62.31842,-62.2505 86.52853,0.093 86.52853,0.093 -58.21155,57.1691 c -77.92112,76.5257 -121.62518,119.4952 -151.06323,148.5242 -201.17666,198.3809 -198.13416,195.4303 -204.77941,198.5969 -3.41917,1.6294 -12.22483,4.4432 -18.01471,5.7565 -9.87326,2.2396 -16.40582,2.7585 -21.32353,1.6935 z"
       id="path23237"
       inkscape:connector-curvature="0"
       transform="matrix(0.26458333,0,0,0.26458333,-118.46236,-64.082714)" />
    <path
       style="opacity:1;fill:#ffcc00;fill-opacity:1;stroke:#ffcc00;stroke-width:1.31215026;stroke-miterlimit:4;stroke-dasharray:none;stroke-dashoffset:0;stroke-opacity:1"
       d="m 735.17731,777.82802 234.92647,-234.49885 90.06902,-0.0346 90.0691,-0.0346 -7.3485,7.24703 c -4.0416,3.98588 -35.6389,34.9938 -70.2161,68.9065 -34.5772,33.91271 -82.72058,81.20625 -106.98528,105.09676 -24.26471,23.89052 -80.68015,79.32346 -125.36765,123.18433 -44.6875,43.86087 -100.67702,98.85763 -124.42116,122.21503 l -43.17116,42.46798 -86.24061,-0.025 -86.2406,-0.025 z"
       id="path23239"
       inkscape:connector-curvature="0"
       transform="matrix(0.26458333,0,0,0.26458333,-118.46236,-64.082714)" />
    <path
       style="opacity:1;fill:#ffcc00;fill-opacity:1;stroke:#ffcc00;stroke-width:1.31215026;stroke-miterlimit:4;stroke-dasharray:none;stroke-dashoffset:0;stroke-opacity:1"
       d="m 613.12276,1126.8272 c 12.24744,-12.0776 97.5247,-95.9116 167.64279,-164.80549 91.1709,-89.57919 134.22139,-131.88856 230.88235,-226.90772 46.7096,-45.91618 109.7426,-107.85978 140.0735,-137.65245 l 55.1471,-54.16849 65.9926,-0.0165 c 36.296,-0.009 65.9927,0.12439 65.9927,0.29663 0,0.17224 -133.2093,133.18694 -296.0207,295.58823 L 746.81241,1134.4365 h -70.70298 -70.70298 z"
       id="path23241"
       inkscape:connector-curvature="0"
       transform="matrix(0.26458333,0,0,0.26458333,-118.46236,-64.082714)" />
    <path
       style="opacity:1;fill:#ffcc00;fill-opacity:1;stroke:#ffcc00;stroke-width:3.73368096;stroke-miterlimit:4;stroke-dasharray:none;stroke-dashoffset:0;stroke-opacity:1"
       d="m 1194.1656,321.85833 c 183.8903,-183.57352 223.3791,-222.014558 237.0888,-230.79862 9.0472,-5.796717 17.0841,-10.539611 17.8598,-10.539765 0.7757,-1.54e-4 3.3524,5.190311 5.726,11.534368 9.1007,24.323827 24.7133,49.062017 47.3289,74.992987 l 13.7468,15.76198 -14.3487,14.25058 c -7.8917,7.83782 -90.1546,88.69138 -182.8064,179.67457 l -168.4578,165.42399 -88.3883,-0.0208 -88.38837,-0.0208 220.63927,-220.25915 z"
       id="path23243"
       inkscape:connector-curvature="0"
       transform="matrix(0.26458333,0,0,0.26458333,-118.46236,-64.082714)" />
    <path
       style="opacity:1;fill:#ffcc00;fill-opacity:1;stroke:#ffcc00;stroke-width:3.71132069;stroke-miterlimit:4;stroke-dasharray:none;stroke-dashoffset:0;stroke-opacity:1"
       d="m 1219.9965,531.09353 c 23.945,-23.33548 258.4677,-253.24424 292.1788,-286.43063 l 35.3554,-34.80502 17.0006,9.86188 c 16.308,9.46 36.6163,17.02541 53.1901,19.81473 4.2894,0.7219 7.799,1.80875 7.799,2.41524 0,0.60648 -3.905,7.81712 -8.6777,16.02364 -7.3477,12.63405 -29.2395,35.56021 -142.8348,149.58318 L 1339.8508,542.2188 h -65.6351 -65.6351 z"
       id="path23245"
       inkscape:connector-curvature="0"
       transform="matrix(0.26458333,0,0,0.26458333,-118.46236,-64.082714)" />
    <path
       style="opacity:1;fill:#ffcc00;fill-opacity:1;stroke:#ffcc00;stroke-width:5.2538476;stroke-linejoin:bevel;stroke-miterlimit:4;stroke-dasharray:none;stroke-dashoffset:0;stroke-opacity:1"
       d="M 954.94588,559.99046 C 1361.0794,154.29506 1435.848,81.63994 1447.1812,81.669368 c 1.8441,0.0048 8.2344,10.262141 14.2007,22.794122 5.9662,12.53197 18.1741,32.05011 27.1285,43.37364 8.9544,11.32353 18.9259,24.04986 22.1589,28.28074 l 5.8783,7.6925 -184.4773,180.53194 c -204.4774,200.1042 -277.1031,271.36644 -503.98633,494.52423 l -154.74681,152.20586 -84.93093,-0.049 -84.93094,-0.049 z"
       id="path23265"
       inkscape:connector-curvature="0"
       transform="matrix(0.26458333,0,0,0.26458333,-118.46236,-64.082714)" />
    <path
       style="opacity:1;fill:#ffcc00;fill-opacity:1;stroke:#ffcc00;stroke-width:5.2538476;stroke-linejoin:bevel;stroke-miterlimit:4;stroke-dasharray:none;stroke-dashoffset:0;stroke-opacity:1"
       d="m 219.60006,1423.4259 c -7.98727,-2.4502 -18.09679,-13.6652 -25.58967,-28.388 -8.01394,-15.7467 -8.00179,-24.5928 0.0844,-61.417 l 3.76757,-17.1574 314.57118,-316.2567 C 934.81376,575.56346 1412.2644,102.4582 1431.5026,89.502476 c 8.588,-5.783464 16.6148,-9.897147 17.8374,-9.141517 1.2227,0.75563 8.2637,12.729235 15.6468,26.608011 7.3831,13.87878 22.2527,36.5408 33.0436,50.36004 13.9262,17.83457 18.8432,26.27204 16.944,29.07545 -1.4715,2.17225 -80.7638,80.36153 -176.205,173.75397 C 1243.3282,453.55087 1054.6345,638.5434 919.45,771.25296 784.26553,903.96249 669.11847,1016.343 663.56765,1020.9875 c -5.5508,4.6445 -85.53353,82.7797 -177.73942,173.6338 -206.4247,203.3984 -223.93349,220.257 -231.8833,223.2716 -10.16918,3.8563 -29.60419,6.9873 -34.34487,5.533 z"
       id="path23267"
       inkscape:connector-curvature="0"
       transform="matrix(0.26458333,0,0,0.26458333,-118.46236,-64.082714)" />
    <path
       style="opacity:1;fill:#ffcc00;fill-opacity:1;stroke:#ffcc00;stroke-width:5.2538476;stroke-linejoin:bevel;stroke-miterlimit:4;stroke-dasharray:none;stroke-dashoffset:0;stroke-opacity:1"
       d="m 303.07835,1517.4061 c -12.70675,-8.0422 -19.2605,-26.3038 -18.13473,-50.5313 l 0.88461,-19.0377 52.90266,-51.4706 c 29.09646,-28.3088 100.3974,-98.125 158.44652,-155.147 l 105.54385,-103.6765 22.43586,-0.5194 22.43582,-0.5193 -19.81338,-1.6866 -19.81338,-1.6865 212.46044,-208.63233 c 116.85323,-114.7478 276.72688,-272.2478 355.27478,-350 78.5478,-77.75219 194.3566,-191.78104 257.3529,-253.39744 l 114.5386,-112.02982 20.5883,11.14185 c 11.3235,6.12802 28.3989,13.1756 37.9452,15.6613 9.5463,2.4857 17.9792,5.14167 18.7397,5.90217 6.821,6.82106 -39.3142,54.39333 -447.9879,461.94256 l -433.54591,432.35291 -41.98732,-0.1697 -41.98732,-0.1697 40.46176,1.6402 40.46174,1.6401 -190.7153,190.6863 -190.71529,190.6863 -23.27587,1.4278 c -19.73041,1.2104 -24.68036,0.539 -32.49634,-4.4078 z"
       id="path23269"
       inkscape:connector-curvature="0"
       transform="matrix(0.26458333,0,0,0.26458333,-118.46236,-64.082714)" />
    <path
       style="opacity:1;fill:#ffcc00;fill-opacity:1;stroke:#ffcc00;stroke-width:5.2538476;stroke-linejoin:bevel;stroke-miterlimit:4;stroke-dasharray:none;stroke-dashoffset:0;stroke-opacity:1"
       d="m 303.12571,1519.4195 c -10.77144,-5.2189 -19.08891,-24.1792 -20.79203,-47.397 l -1.55834,-21.2442 43.67673,-42.6471 c 24.0222,-23.4558 78.76205,-77.0341 121.6441,-119.0627 42.88205,-42.0286 107.08501,-104.9304 142.67324,-139.7817 79.22982,-77.5892 358.98294,-352.55558 611.76469,-601.29705 305.9598,-301.06958 334.995,-329.54431 341.4846,-334.89395 5.9647,-4.91697 7.0157,-4.68096 28.8279,6.47389 12.4505,6.3673 29.2885,13.17247 37.4175,15.1226 8.1291,1.95014 15.4691,5.34103 16.3111,7.53532 4.6817,12.20038 3.5715,13.33465 -727.33455,743.10952 l -538.3332,537.49997 -24.7749,-0.1991 c -13.6262,-0.1094 -27.57927,-1.5578 -31.00684,-3.2185 z"
       id="path23271"
       inkscape:connector-curvature="0"
       transform="matrix(0.26458333,0,0,0.26458333,-118.46236,-64.082714)" />
  </g>
</svg>
